<?xml version="1.0" encoding="UTF-8" standalone="no"?>
<svg width="93px" height="17px" viewBox="0 0 93 17" version="1.1" xmlns="http://www.w3.org/2000/svg" xmlns:xlink="http://www.w3.org/1999/xlink" xmlns:sketch="http://www.bohemiancoding.com/sketch/ns">
    <!-- Generator: Sketch 3.3 (11970) - http://www.bohemiancoding.com/sketch -->
    <title>logo color</title>
    <desc>Created with Sketch.</desc>
    <defs></defs>
    <g id="Page-1" stroke="none" stroke-width="1" fill="none" fill-rule="evenodd" sketch:type="MSPage">
        <g id="Artboard-4" sketch:type="MSArtboardGroup" transform="translate(-851.000000, -274.000000)">
            <g id="搜索列表" sketch:type="MSLayerGroup" transform="translate(836.000000, 260.000000)">
                <g id="logo-color" transform="translate(15.000000, 14.000000)" sketch:type="MSShapeGroup">
                    <path d="M19.6088615,9.26688927 L14.3864088,9.26688927 C14.1865845,9.26688927 14.0241486,9.10409689 14.0241486,8.90351903 L14.0241486,7.12445329 C14.0241486,6.92387543 14.1865845,6.76139792 14.3864088,6.76139792 L20.1778581,6.76139792 C20.3779966,6.76139792 20.5401182,6.92387543 20.5401182,7.12445329 L20.5401182,8.33327336 C20.5401182,8.84904498 20.1231892,9.26688927 19.6088615,9.26688927" id="Fill-5" fill="#264779"></path>
                    <path d="M0.509614865,0.935823529 L9.80615878,0.935823529 C10.0062973,0.935823529 10.1684189,1.09830104 10.1684189,1.29887889 L10.1684189,3.00898616 C10.1684189,3.52444291 9.75148986,3.9422872 9.23716216,3.9422872 L3.3973277,3.9422872 L3.3973277,6.69873702 L9.43101689,6.69873702 C9.63115541,6.69873702 9.79327703,6.86121453 9.79327703,7.06179239 L9.79327703,8.77189965 C9.79327703,9.2873564 9.37634797,9.70520069 8.86202027,9.70520069 L3.3973277,9.70520069 L3.3973277,12.7119792 L10.1809865,12.7119792 C10.381125,12.7119792 10.5432466,12.8744567 10.5432466,13.0750346 L10.5432466,14.7851419 C10.5432466,15.3009135 10.1263176,15.7187578 9.61198986,15.7187578 L0.509614865,15.7187578 C0.309476351,15.7187578 0.14735473,15.5559654 0.14735473,15.3553875 L0.14735473,1.29887889 C0.14735473,1.09830104 0.309476351,0.935823529 0.509614865,0.935823529" id="Fill-4" fill="#264779"></path>
                    <path d="M24.2337264,1.29887889 C24.2337264,1.09830104 24.3961622,0.935823529 24.5963007,0.935823529 L29.7131858,0.935823529 C30.4769797,0.935823529 31.1993007,1.00572664 31.8798345,1.14458824 C32.5603682,1.28376471 33.1541858,1.5240173 33.6612872,1.86503114 C34.1680743,2.20635986 34.5708649,2.66545329 34.8696588,3.24294118 C35.1681385,3.82074394 35.3176926,4.54811419 35.3176926,5.42473702 C35.3176926,6.28813495 35.1785068,7.01172664 34.9010777,7.59645675 C34.6230203,8.18118685 34.2409662,8.64752249 33.7549155,8.99546367 C33.2685507,9.34340484 32.6926419,9.59058478 32.0259324,9.73668858 C31.359223,9.88279239 30.6365878,9.95584429 29.8589696,9.95584429 L27.4840135,9.95584429 L27.4840135,14.7851419 C27.4840135,15.3009135 27.0670845,15.7187578 26.5527568,15.7187578 L24.5963007,15.7187578 C24.3961622,15.7187578 24.2337264,15.5559654 24.2337264,15.3553875 L24.2337264,1.29887889 L24.2337264,1.29887889 Z M27.4840135,7.19970934 L29.6506622,7.19970934 C29.9425439,7.19970934 30.2237432,7.172 30.4945743,7.11626644 C30.7654054,7.06084775 31.0082736,6.96669896 31.2234932,6.83444983 C31.439027,6.70220069 31.6124595,6.52114533 31.7444189,6.29128374 C31.8763784,6.06173702 31.9423581,5.77299308 31.9423581,5.42473702 C31.9423581,5.04908651 31.8556419,4.74648789 31.6822095,4.5166263 C31.5081486,4.28707958 31.2863311,4.10948789 31.0155,3.98416609 C30.7443547,3.85884429 30.4424189,3.77917993 30.1090642,3.74422837 C29.7757095,3.7095917 29.4561791,3.69195848 29.1507872,3.69195848 L27.4840135,3.69195848 L27.4840135,7.19970934 L27.4840135,7.19970934 Z" id="Fill-6" fill="#264779"></path>
                    <path d="M54.7210743,1.29887889 C54.7210743,1.09830104 54.8835101,0.935823529 55.0833345,0.935823529 L60.4295777,0.935823529 C61.1798615,0.935823529 61.8911858,1.00887543 62.5651216,1.15497924 C63.2387432,1.30139792 63.8287905,1.54479931 64.3362061,1.88581315 C64.8429932,2.22714187 65.2457838,2.68623529 65.5445777,3.26372318 C65.8430574,3.84184083 65.9922973,4.56196886 65.9922973,5.42473702 C65.9922973,6.46887543 65.7214662,7.35620415 65.1798041,8.08703806 C64.6381419,8.81787197 63.8463851,9.28074394 62.804848,9.47565398 L66.2241689,15.1683495 C66.3696385,15.4101765 66.1955777,15.7187578 65.91375,15.7187578 L62.8783682,15.7187578 C62.7435811,15.7187578 62.6197905,15.6435017 62.5572669,15.5238478 L59.5756115,9.80974048 L57.9713615,9.80974048 L57.9713615,14.7851419 C57.9713615,15.3009135 57.5544324,15.7187578 57.0397905,15.7187578 L55.0833345,15.7187578 C54.8835101,15.7187578 54.7210743,15.5559654 54.7210743,15.3553875 L54.7210743,1.29887889 L54.7210743,1.29887889 Z M57.9713615,7.05360554 L59.8879155,7.05360554 C60.1797973,7.05360554 60.4886453,7.04321453 60.8150878,7.02211765 C61.1412162,7.00133564 61.4365541,6.93867474 61.700473,6.83444983 C61.9640777,6.72991003 62.1830676,6.56648789 62.3568142,6.34355363 C62.5302466,6.12124913 62.617277,5.80794464 62.617277,5.40395502 C62.617277,5.0283045 62.5409291,4.72916955 62.3882331,4.50623529 C62.2349088,4.28361592 62.0407399,4.11326644 61.8047838,3.99487197 C61.5685135,3.87679239 61.2976824,3.79618339 60.9922905,3.75461938 C60.6865845,3.71274048 60.3881047,3.69195848 60.096223,3.69195848 L57.9713615,3.69195848 L57.9713615,7.05360554 L57.9713615,7.05360554 Z" id="Fill-7" fill="#264779"></path>
                    <path d="M72.627973,3.81728028 L68.7816689,3.81728028 C68.5815304,3.81728028 68.4194088,3.65480277 68.4194088,3.45422491 L68.4194088,1.29887889 C68.4194088,1.09830104 68.5815304,0.935823529 68.7816689,0.935823529 L79.7239358,0.935823529 C79.9240743,0.935823529 80.0865101,1.09830104 80.0865101,1.29887889 L80.0865101,2.88397924 C80.0865101,3.39943599 79.6692669,3.81728028 79.1549392,3.81728028 L75.8779459,3.81728028 L75.8779459,14.7851419 C75.8779459,15.3009135 75.4610169,15.7187578 74.9466892,15.7187578 L72.9902331,15.7187578 C72.7900946,15.7187578 72.627973,15.5559654 72.627973,15.3553875 L72.627973,3.81728028" id="Fill-8" fill="#264779"></path>
                    <path d="M90.8487466,4.26062976 C90.7152162,4.40704844 90.4886858,4.41932872 90.3413311,4.28676471 C90.1138581,4.08177855 89.8376858,3.92182007 89.5134426,3.80688927 C89.0619527,3.6469308 88.6349696,3.56663668 88.2321791,3.56663668 C87.9959088,3.56663668 87.7530405,3.5946609 87.5029459,3.65007958 C87.2531655,3.70581315 87.0168953,3.7930346 86.7947635,3.91111419 C86.5723176,4.02950865 86.3916588,4.18631834 86.2531014,4.38091349 C86.1139155,4.57613841 86.0447939,4.81261246 86.0447939,5.0909654 C86.0447939,5.53651903 86.2113142,5.87753287 86.5446689,6.11400692 C86.8780236,6.35079585 87.2980946,6.55231834 87.8051959,6.71951903 C88.3119831,6.88640484 88.8574155,7.05360554 89.4405507,7.22080623 C90.024,7.38769204 90.5688041,7.62448097 91.0762196,7.93054325 C91.5830068,8.23692042 92.0030777,8.64752249 92.3364324,9.16234948 C92.6697872,9.67749135 92.8366216,10.3667612 92.8366216,11.2295294 C92.8366216,12.0510484 92.6836115,12.7677128 92.3782196,13.3801522 C92.0725135,13.9929066 91.6593547,14.5008062 91.1387432,14.9041661 C90.6178176,15.3081557 90.0136318,15.6072907 89.3261858,15.8022007 C88.6384257,15.9967958 87.9126486,16.0947232 87.1488547,16.0947232 C86.1905777,16.0947232 85.3014223,15.9483045 84.4820169,15.6560969 C83.76975,15.4019896 83.0995845,15.0112249 82.4715203,14.4838028 C82.3144257,14.3521834 82.3009155,14.1144498 82.4385304,13.9626782 L84.2250101,11.995 C84.3682804,11.8372457 84.613348,11.8391349 84.7597601,11.9940554 C85.0444155,12.2950796 85.3787128,12.5378512 85.7635946,12.7223702 C86.2703818,12.9660865 86.7947635,13.0876298 87.3364257,13.0876298 C87.6000304,13.0876298 87.8677196,13.0564567 88.1385507,12.9937958 C88.4093818,12.9311349 88.65225,12.837301 88.8677838,12.7119792 C89.0830034,12.5866574 89.2564358,12.426699 89.3887095,12.2317889 C89.5203547,12.0368789 89.5863345,11.8073322 89.5863345,11.5428339 C89.5863345,11.0972803 89.4163581,10.7461903 89.0760912,10.4883045 C88.7355101,10.2307336 88.308527,10.0115779 87.7948277,9.83052249 C87.2808142,9.64978201 86.7250135,9.46872664 86.1280541,9.28767128 C85.5307804,9.1069308 84.9749797,8.86321453 84.4612804,8.55683737 C83.9472669,8.25077509 83.5202838,7.84710035 83.1800169,7.34581315 C82.8394358,6.84484083 82.6694595,6.18391003 82.6694595,5.362391 C82.6694595,4.56889619 82.8259257,3.87301384 83.1382297,3.27442907 C83.450848,2.67615917 83.8674628,2.17487197 84.3883885,1.77088235 C84.9093142,1.36752249 85.5100439,1.064609 86.1905777,0.862771626 C86.8707973,0.661249135 87.5723818,0.559858131 88.2947027,0.559858131 C89.1282466,0.559858131 89.9335135,0.678252595 90.7114459,0.915041522 C91.3655878,1.11404498 91.9660034,1.42640484 92.5120642,1.85212111 C92.6801554,1.98279585 92.702777,2.22871626 92.5595068,2.38615571 L90.8487466,4.26062976" id="Fill-9" fill="#264779"></path>
                    <path d="M49.4307568,11.7830865 C49.3126216,12.1178028 49.5944493,12.7311869 49.5944493,12.7311869 C49.5944493,12.7311869 49.4973649,13.1792595 46.6985676,13.783827 C46.6985676,13.783827 45.9441993,13.292301 45.7270946,11.4395536 C45.5470642,9.902 45.4616047,9.88940484 45.4436959,7.69690311 C45.4452669,7.67580623 45.4458953,7.65282007 45.4455811,7.62825952 C45.4283007,6.54066782 45.3915405,6.33032872 45.5813108,6.15934948 C45.5844527,6.15651557 45.5872804,6.15336678 45.5897939,6.14990311 C45.774223,5.9845917 45.890473,5.7443391 45.890473,5.47700692 C45.890473,4.97855363 45.4873682,4.57456401 44.9903209,4.57456401 C44.4929595,4.57456401 44.0898547,4.97855363 44.0898547,5.47700692 C44.0898547,5.74937716 44.2105034,5.99372318 44.4012162,6.1590346 L44.4015304,6.15934948 C44.5803041,6.32056747 44.5579966,6.5170519 44.540402,7.4494083 L44.5388311,7.4494083 C44.5240642,9.34151557 44.4408041,9.83902422 44.2532331,11.4395536 C44.0364426,13.292301 43.2817601,13.783827 43.2817601,13.783827 C40.4829628,13.1792595 40.3858784,12.7311869 40.3858784,12.7311869 C40.3858784,12.7311869 40.6677061,12.1178028 40.5495709,11.7830865 C40.4462027,11.4899343 38.3361081,9.91742907 38.3361081,9.91742907 C38.3361081,9.91742907 38.4237669,11.4754498 39.5152601,13.2844291 C40.6969257,15.2432907 44.9900068,16.846654 44.9900068,16.846654 L44.9903209,16.846654 C44.9903209,16.846654 49.2837162,15.2432907 50.4653818,13.2844291 C51.5565608,11.4754498 51.6442196,9.91742907 51.6442196,9.91742907 C51.6442196,9.91742907 49.534125,11.4899343 49.4307568,11.7830865 L49.4307568,11.7830865 Z M44.9903209,5.8532872 C44.7826419,5.8532872 44.6145507,5.68482699 44.6145507,5.47700692 C44.6145507,5.26887197 44.7826419,5.10041176 44.9903209,5.10041176 C45.1976858,5.10041176 45.365777,5.26887197 45.365777,5.47700692 C45.365777,5.68482699 45.1976858,5.8532872 44.9903209,5.8532872 L44.9903209,5.8532872 Z" id="Fill-10" fill="#EB8B2D"></path>
                    <path d="M51.9090811,5.08592734 C50.6372432,3.41234602 46.669348,0.210972318 45.0239392,0.129418685 L45.0233108,0.127529412 C45.0132568,0.127529412 45.0022601,0.128474048 44.9918919,0.128474048 L44.9896926,0.128474048 C44.9790101,0.128474048 44.9683277,0.127529412 44.9582736,0.127529412 L44.9576453,0.129418685 C43.3122365,0.210972318 39.3443412,3.41234602 38.0725034,5.08592734 C37.4714595,5.87690311 38.3361081,9.65482007 38.3361081,9.65482007 C38.3361081,9.65482007 38.1127196,6.72203806 38.6402432,5.73898616 C39.1957297,4.70429412 43.1142973,2.00546713 44.9516757,1.8536955 C44.9651858,1.85306574 44.9774392,1.85086159 44.9896926,1.8477128 L44.9906351,1.8477128 L44.9918919,1.8477128 C45.0041453,1.85086159 45.0163986,1.85306574 45.0299088,1.8536955 C46.8672872,2.00546713 50.7855405,4.70429412 51.3413412,5.73898616 C51.8688649,6.72203806 51.6454764,9.65482007 51.6454764,9.65482007 C51.6454764,9.65482007 52.510125,5.87690311 51.9090811,5.08592734" id="Fill-11" fill="#264779"></path>
                    <path d="M46.5703784,5.08750173 C46.5314189,4.86834602 46.441875,4.64289273 46.2982905,4.44262976 C46.1553345,4.24299654 45.960223,4.067609 45.7286655,3.94858478 C45.4983649,3.82672664 45.2322466,3.7646955 44.9680135,3.76595502 C44.8357399,3.76784429 44.7034662,3.78516263 44.5755912,3.81728028 C44.447402,3.84908304 44.3251824,3.89977855 44.2105034,3.96086505 C44.0955101,4.02163668 43.9902568,4.09783737 43.896,4.18285467 C43.8017432,4.26787197 43.7178547,4.36233564 43.6487331,4.46404152 C43.5089189,4.66650865 43.4218885,4.89290657 43.3866993,5.11269204 C43.3832432,5.14008651 43.379473,5.16748097 43.3757027,5.19456055 C43.3735034,5.22195502 43.3713041,5.2490346 43.3691047,5.27611419 C43.3681622,5.30382353 43.3672196,5.33121799 43.366277,5.35861246 C43.3669054,5.38317301 43.3675338,5.40773356 43.3681622,5.43197924 L43.3684764,5.43922145 L43.3687905,5.44425952 L43.3709899,5.47322837 C43.3719324,5.48582353 43.3731892,5.49873356 43.3741318,5.51132872 C43.3757027,5.53683391 43.379473,5.56170934 43.3832432,5.5862699 C43.3892128,5.63570588 43.3995811,5.68356747 43.4099493,5.73016955 C43.4561351,5.91563322 43.5296554,6.07527682 43.6135439,6.20217301 C43.6971182,6.32938408 43.7885473,6.42510727 43.8683514,6.4962699 C43.9472128,6.56837716 44.0191622,6.61277509 44.0662905,6.64331834 C44.1153041,6.67102768 44.1413818,6.68582699 44.1413818,6.68582699 C44.1413818,6.68582699 44.1193885,6.66567474 44.0776014,6.62788927 C44.0574932,6.60836678 44.0329865,6.58412111 44.005652,6.55515225 C43.9789459,6.52492388 43.947527,6.49123183 43.9161081,6.45061246 C43.8526419,6.37031834 43.784777,6.26609343 43.7257095,6.13919723 C43.7175405,6.12376817 43.7115709,6.10707958 43.7046588,6.090391 C43.6977466,6.0740173 43.6908345,6.05701384 43.6836081,6.04001038 C43.6776385,6.02269204 43.6716689,6.00505882 43.6653851,5.98711073 C43.6622432,5.97829412 43.6591014,5.96916263 43.6559595,5.96003114 C43.6534459,5.95089965 43.6509324,5.94176817 43.6484189,5.9323218 C43.6254831,5.85832526 43.6107162,5.77834602 43.5994054,5.69521799 C43.5956351,5.6533391 43.5902939,5.61083045 43.5899797,5.56737716 C43.5890372,5.54565052 43.5877804,5.52392388 43.5890372,5.50156747 C43.5896655,5.48047059 43.5902939,5.45905882 43.5909223,5.43764706 C43.5924932,5.41340138 43.5943784,5.38915571 43.5962635,5.36459516 C43.5990912,5.34286851 43.6019189,5.32114187 43.6047466,5.29910035 C43.6085169,5.27642907 43.6126014,5.25375779 43.6166858,5.23077163 C43.6217128,5.20810035 43.6267399,5.18542907 43.6320811,5.16244291 C43.6773243,4.97949827 43.7634122,4.79844291 43.8872027,4.63848443 C44.0109932,4.47884083 44.1734291,4.34218339 44.3603716,4.24771972 C44.5473142,4.15294118 44.7581351,4.10098616 44.970527,4.1003564 L44.9802669,4.10004152 L44.9874932,4.1003564 L45.0098007,4.10067128 L45.0544155,4.10161592 C45.0795507,4.10413495 45.1034291,4.10476471 45.1295068,4.10791349 C45.1555845,4.11137716 45.1819764,4.11358131 45.2080541,4.11861938 L45.2470135,4.12554671 L45.2856588,4.13404844 C45.3887128,4.15797924 45.4889392,4.19167128 45.5828818,4.23827336 L45.6180709,4.2555917 L45.6523176,4.27479931 C45.6755676,4.28676471 45.6972466,4.30124913 45.7192399,4.31478893 C45.7415473,4.32832872 45.762598,4.34375779 45.784277,4.35792734 C45.8046993,4.37367128 45.8260642,4.38847059 45.8458581,4.40484429 C45.9262905,4.46970934 45.9982399,4.54307612 46.0620203,4.62148097 C46.1883243,4.77923529 46.2766115,4.95934602 46.3249966,5.14134602 C46.3498176,5.23203114 46.3639561,5.3236609 46.3702399,5.41277163 L46.3718108,5.42946021 L46.372125,5.43386851 L46.372125,5.43575779 C46.372125,5.43575779 46.3724392,5.44079585 46.3724392,5.43449827 L46.3727534,5.44362976 C46.3730676,5.45559516 46.3730676,5.46756055 46.3733818,5.47921107 C46.3736959,5.50251211 46.3752669,5.5280173 46.3736959,5.54785467 C46.3730676,5.56863668 46.3724392,5.58941869 46.3718108,5.60988581 C46.3696115,5.63129758 46.3677264,5.65239446 46.3658412,5.67317647 C46.3645845,5.69427336 46.3614426,5.71474048 46.3583007,5.73489273 C46.3548446,5.75535986 46.3526453,5.77582699 46.3485608,5.79534948 C46.3397635,5.83502422 46.332223,5.87375433 46.3212264,5.91091003 C46.3020608,5.98616609 46.2744122,6.05480969 46.2473919,6.11935986 C46.1902095,6.24688581 46.1242297,6.35205536 46.0617061,6.433609 C46.0309155,6.47454325 46.0004392,6.50886505 45.9740473,6.5394083 C45.947027,6.5693218 45.9225203,6.59356747 45.9030405,6.61371972 C45.8621959,6.65182007 45.8402027,6.6722872 45.8402027,6.6722872 C45.8402027,6.6722872 45.8662804,6.65717301 45.9149797,6.62883391 C45.9614797,6.59703114 46.0328007,6.55231834 46.1107196,6.47863668 C46.1892669,6.40621453 46.279125,6.30923183 46.3611284,6.18044637 C46.4415608,6.05197578 46.5153953,5.8920173 46.5565541,5.70529412 C46.5615811,5.68199308 46.5669223,5.65837716 46.5713209,5.63413149 C46.5750912,5.60925606 46.5785473,5.58406574 46.5820034,5.55856055 C46.586402,5.53179585 46.5870304,5.51038408 46.5895439,5.48613841 C46.5904865,5.47417301 46.5914291,5.46220761 46.5923716,5.45024221 L46.593,5.44142561 L46.5933142,5.42820069 L46.5939426,5.40899308 C46.5970845,5.30508304 46.5895439,5.19707958 46.5703784,5.08750173" id="Fill-12" fill="#EB8B2D"></path>
                </g>
            </g>
        </g>
    </g>
</svg>