<?xml version="1.0" encoding="UTF-8" standalone="no"?>
<svg width="23px" height="24px" viewBox="0 0 23 24" version="1.1" xmlns="http://www.w3.org/2000/svg" xmlns:xlink="http://www.w3.org/1999/xlink" xmlns:sketch="http://www.bohemiancoding.com/sketch/ns">
    <!-- Generator: Sketch 3.3 (11970) - http://www.bohemiancoding.com/sketch -->
    <title>ic_port</title>
    <desc>Created with Sketch.</desc>
    <defs></defs>
    <g id="Page-1" stroke="none" stroke-width="1" fill="none" fill-rule="evenodd" sketch:type="MSPage">
        <g id="Artboard-4" sketch:type="MSArtboardGroup" transform="translate(-1250.000000, -563.000000)" fill="#727272">
            <g id="左侧初始状态" sketch:type="MSLayerGroup" transform="translate(1226.000000, 257.000000)">
                <g id="Group" transform="translate(0.000000, 292.000000)" sketch:type="MSShapeGroup">
                    <path d="M39.3333333,28.7813333 L41.156,30.552 C39.7813333,31.6266667 38.5666667,32.9573333 36.5226667,32.9573333 C36.5586667,32.9573333 36.548,27.7853333 36.536,24.2906667 L38.1533333,24.2906667 L38.1533333,23.336 L36.532,23.336 C36.5293333,22.6146667 36.5266667,22.0146667 36.5253333,21.628 C38.124,21.1053333 39.2826667,19.6546667 39.2826667,17.9266667 C39.2826667,15.7573333 37.472,14 35.2386667,14 C33.0026667,14 31.1933333,15.7573333 31.1933333,17.9266667 C31.1933333,19.628 32.316,21.0653333 33.8786667,21.6066667 L33.8786667,23.336 L32.268,23.336 L32.268,24.2906667 L33.8786667,24.2906667 L33.884,32.916 C31.7466667,32.916 30.4973333,31.692 29.128,30.6746667 L31.0786667,28.7813333 L24,27.74 L25.0733333,34.608 L26.956,32.7826667 C28.4906667,34.0213333 30.5053333,35.7186667 34.4346667,35.9093333 L34.7946667,38 L35.6253333,38 L35.9853333,35.9066667 C39.8426667,35.692 41.812,33.964 43.3373333,32.672 L45.4013333,34.672 L46.42,27.74 L39.3333333,28.7813333 L39.3333333,28.7813333 Z M33.1506667,17.864 C33.1506667,16.7466667 34.0853333,15.84 35.2386667,15.84 C36.3893333,15.84 37.324,16.7466667 37.324,17.864 C37.324,18.9813333 36.3893333,19.8893333 35.2386667,19.8893333 C34.0853333,19.8893333 33.1506667,18.9813333 33.1506667,17.864 L33.1506667,17.864 Z" id="ic_port"></path>
                </g>
            </g>
        </g>
    </g>
</svg>