<?xml version="1.0" encoding="UTF-8"?>
<!-- Generator: Adobe Illustrator 15.0.2, SVG Export Plug-In . SVG Version: 6.00 Build 0)  -->
<!DOCTYPE svg PUBLIC "-//W3C//DTD SVG 1.1//EN" "http://www.w3.org/Graphics/SVG/1.1/DTD/svg11.dtd">
<svg xmlns="http://www.w3.org/2000/svg" xmlns:xlink="http://www.w3.org/1999/xlink" version="1.1" id="Layer_1" x="0px" y="0px" width="1024px" height="1024px" viewBox="0 0 1024 1024" enable-background="new 0 0 1024 1024" xml:space="preserve">
<g>
	<path d="M560.8,197.8l178,129.4V183H696v-63.6h-72.8V64.2c0-14.2-49.8-25.8-111.2-25.8S400.8,50,400.8,64.2v55.2H328V183h-42.8   v144.2l178-129.4C490,178.4,534,178.4,560.8,197.8z" fill="#FFFFFF"/>
	<path d="M315.2,751.6c8,3.2,16.399,5.4,26,5.601c34-0.8,56.8-20.601,74.8-64.2c0.4-1.2,0.8-2.2,1.4-3.4c2-2.6,4.6-4.399,7.6-4.399   s5.8,1.8,7.6,4.399c0.2,0.4,0.4,0.601,0.4,1c0.4,0.601,0.8,1.2,1,1.801c18.4,45.199,41.6,65.199,77.2,65.199h0.2   c35.199,0,58.399-20,76.8-64.6c0.399-1.2,0.8-2.2,1.399-3.4c2-2.6,4.4-4.399,7.601-4.399c3,0,5.8,1.8,7.6,4.399   c0.2,0.4,0.4,0.601,0.601,1c0.199,0.601,0.6,1.2,0.8,1.801c18,44.399,40.8,64.399,75.399,65c9.801-0.2,18.4-2.4,26.4-5.801   L810.6,491c10.2-31.6-3.399-73.4-30.199-93L738.6,367.6l-178-129.4c-10-7.4-22.8-11-36-12.8v431.8c0,7-5.8,12.8-12.8,12.8   s-12.8-5.8-12.8-12.8V225.4c-13,1.8-25.8,5.4-36,12.8L285,367.6l-41.6,30.2c-26.8,19.601-40.4,61.4-30.2,93L315.2,751.6z    M584.6,368c11.2,0,20.2,9,20.2,20.2s-9,20.2-20.2,20.2c-11.199,0-20.199-9-20.199-20.2S573.4,368,584.6,368z M441,368   c11.2,0,20.2,9,20.2,20.2s-9,20.2-20.2,20.2s-20.2-9-20.2-20.2S429.8,368,441,368z" fill="#FFFFFF"/>
	<path d="M947.2,742.2c-0.2-0.601-0.4-1-0.601-1.8c-0.199-0.4-0.399-0.601-0.6-1c-1.8-2.801-4.4-4.601-7.6-4.601   c-3.2,0-5.801,1.8-7.601,4.601c-0.6,1.199-1,2-1.399,3.399C911.2,787.4,888,807.4,852.6,807.4H852.4c-35.4,0-58.601-20.2-77-65.2   c-0.4-0.601-0.601-1-0.801-1.8c-0.399-0.4-0.6-0.601-0.6-1h-0.2c-1.8-2.801-4.399-4.601-7.6-4.601c-3,0-5.601,1.8-7.4,4.601   c-0.6,1.199-1.2,2-1.399,3.399c-18.2,43.8-41,63.601-75.2,64.2c-34.4-0.6-57.2-20.4-75.4-64.8c-0.2-0.601-0.6-1-0.8-1.8   c-0.2-0.4-0.4-0.601-0.6-1C603.6,736.6,600.8,734.8,597.8,734.8c-3.2,0-5.8,1.8-7.6,4.601c-0.601,1.199-1,2-1.4,3.399   C570.4,787.4,547.2,807.4,512,807.4h-0.2c-35.6,0-58.8-20.2-77.2-65.2c-0.199-0.601-0.6-1-1-1.8c0-0.4-0.199-0.601-0.399-1   c-2-2.801-4.601-4.601-7.601-4.601c-3.199,0-5.8,1.8-7.6,4.601c-0.6,1.199-1,2-1.4,3.399c-18,43.601-40.8,63.4-74.8,64.2   c-34.2-0.8-57-20.8-75-64.8c-0.2-0.601-0.4-1-0.8-1.8c-0.2-0.4-0.4-0.601-0.4-1h-0.2c-1.6-2.801-4.4-4.601-7.4-4.601   c-3.2,0-6,1.8-7.6,4.601c-0.8,1.199-1.2,2-1.4,3.399c-18.382,44.558-41.756,64.561-76.9,64.599   c-35.543-0.038-58.718-20.241-77.1-65.198c-0.2-0.601-0.6-1-0.8-1.8c-0.2-0.4-0.4-0.601-0.4-1h-0.4c-1.6-2.801-4.2-4.601-7.4-4.601   c-3,0-5.8,1.8-7.6,4.601c-0.6,1.199-1,2-1.4,3.399C58.6,787.4,35.2,807.4,0,807.4h0.8V985.6h1021.8V807.4h1.4   C988.6,807.4,965.4,787.2,947.2,742.2z" fill="#FFFFFF"/>
</g>
</svg>
