<?xml version="1.0" encoding="UTF-8" standalone="no"?>
<svg width="118px" height="21px" viewBox="0 0 118 21" version="1.1" xmlns="http://www.w3.org/2000/svg" xmlns:xlink="http://www.w3.org/1999/xlink" xmlns:sketch="http://www.bohemiancoding.com/sketch/ns">
    <!-- Generator: Sketch 3.3 (11970) - http://www.bohemiancoding.com/sketch -->
    <title>logo</title>
    <desc>Created with Sketch.</desc>
    <defs></defs>
    <g id="Page-1" stroke="none" stroke-width="1" fill="none" fill-rule="evenodd" sketch:type="MSPage">
        <g id="Artboard-4" sketch:type="MSArtboardGroup" transform="translate(-1247.000000, -362.000000)" fill="#FFFFFF">
            <g id="左侧初始状态" sketch:type="MSLayerGroup" transform="translate(1226.000000, 257.000000)">
                <g id="top-copy" sketch:type="MSShapeGroup">
                    <g id="logo" transform="translate(21.000000, 105.000000)">
                        <path d="M24.8800608,11.4473338 L18.253723,11.4473338 C18.0001824,11.4473338 17.7940811,11.2462373 17.7940811,10.9984647 L17.7940811,8.80079524 C17.7940811,8.55302259 18.0001824,8.35231508 18.253723,8.35231508 L25.6020135,8.35231508 C25.8559527,8.35231508 26.0616554,8.55302259 26.0616554,8.80079524 L26.0616554,10.2940436 C26.0616554,10.9311732 25.5326486,11.4473338 24.8800608,11.4473338" id="Fill-5"></path>
                        <path d="M0.646608108,1.1560173 L12.442223,1.1560173 C12.6961622,1.1560173 12.9018649,1.35672481 12.9018649,1.60449746 L12.9018649,3.7169829 C12.9018649,4.35372359 12.3728581,4.86988418 11.7202703,4.86988418 L4.31058784,4.86988418 L4.31058784,8.27491044 L11.9662365,8.27491044 C12.2201757,8.27491044 12.4258784,8.47561795 12.4258784,8.7233906 L12.4258784,10.835876 C12.4258784,11.4726167 11.8968716,11.9887773 11.2442838,11.9887773 L4.31058784,11.9887773 L4.31058784,15.7030332 L12.9178108,15.7030332 C13.17175,15.7030332 13.3774527,15.9037407 13.3774527,16.1515133 L13.3774527,18.2639988 C13.3774527,18.9011284 12.8484459,19.417289 12.1958581,19.417289 L0.646608108,19.417289 C0.392668919,19.417289 0.186966216,19.2161926 0.186966216,18.9684199 L0.186966216,1.60449746 C0.186966216,1.35672481 0.392668919,1.1560173 0.646608108,1.1560173" id="Fill-4"></path>
                        <path d="M30.7481689,1.60449746 C30.7481689,1.35672481 30.9542703,1.1560173 31.2082095,1.1560173 L37.7006014,1.1560173 C38.6697162,1.1560173 39.5862095,1.24236821 40.4496824,1.41390311 C41.3131554,1.58582699 42.0666014,1.88260961 42.7100203,2.303862 C43.3530405,2.72550336 43.8641081,3.29261877 44.243223,4.00598616 C44.6219392,4.71974252 44.8116959,5.6182587 44.8116959,6.70114574 C44.8116959,7.76769611 44.6350946,8.66154468 44.2830878,9.38385834 C43.9302838,10.106172 43.445527,10.6822337 42.8288176,11.1120434 C42.2117095,11.541853 41.4809865,11.847193 40.6350541,12.0276741 C39.7891216,12.2081553 38.8722297,12.2983959 37.8855743,12.2983959 L34.8721892,12.2983959 L34.8721892,18.2639988 C34.8721892,18.9011284 34.3431824,19.417289 33.6905946,19.417289 L31.2082095,19.417289 C30.9542703,19.417289 30.7481689,19.2161926 30.7481689,18.9684199 L30.7481689,1.60449746 L30.7481689,1.60449746 Z M34.8721892,8.8937586 L37.6212703,8.8937586 C37.9916149,8.8937586 38.3484054,8.85952941 38.6920405,8.79068207 C39.0356757,8.72222369 39.3438311,8.60592225 39.6169054,8.44255567 C39.8903784,8.27918909 40.1104324,8.05553246 40.2778649,7.77158579 C40.4452973,7.48802809 40.5290135,7.13134439 40.5290135,6.70114574 C40.5290135,6.23710686 40.4189865,5.86330857 40.1989324,5.5793619 C39.9780811,5.29580419 39.6966351,5.07642622 39.353,4.92161693 C39.0089662,4.76680765 38.6258649,4.66839874 38.2028986,4.62522329 C37.7799324,4.5824368 37.3745068,4.56065459 36.9870203,4.56065459 L34.8721892,4.56065459 L34.8721892,8.8937586 L34.8721892,8.8937586 Z" id="Fill-6"></path>
                        <path d="M69.4310405,1.60449746 C69.4310405,1.35672481 69.6371419,1.1560173 69.8906824,1.1560173 L76.6740878,1.1560173 C77.6260608,1.1560173 78.5286014,1.24625789 79.3837027,1.42673906 C80.2384054,1.6076092 80.9870676,1.9082815 81.6308851,2.32953389 C82.2739054,2.75117525 82.784973,3.31829066 83.1640878,4.03165805 C83.5428041,4.74580338 83.7321622,5.6353733 83.7321622,6.70114574 C83.7321622,7.99096377 83.388527,9.08707572 82.7012568,9.98987055 C82.0139865,10.8926654 81.0093919,11.4644484 79.6878716,11.7052196 L84.0263649,18.7373729 C84.2109392,19.0361003 83.9900878,19.417289 83.6325,19.417289 L79.7811554,19.417289 C79.6101351,19.417289 79.4530676,19.3243257 79.3737365,19.1765178 L75.5905608,12.1179147 L73.5550608,12.1179147 L73.5550608,18.2639988 C73.5550608,18.9011284 73.0260541,19.417289 72.3730676,19.417289 L69.8906824,19.417289 C69.6371419,19.417289 69.4310405,19.2161926 69.4310405,18.9684199 L69.4310405,1.60449746 L69.4310405,1.60449746 Z M73.5550608,8.71327743 L75.9868176,8.71327743 C76.3571622,8.71327743 76.7490338,8.70044148 77.1632297,8.67438062 C77.577027,8.64870873 77.9517568,8.57130409 78.2866216,8.44255567 C78.6210878,8.31341828 78.8989459,8.11154386 79.1193986,7.83615449 C79.3394527,7.56154305 79.4498784,7.17451985 79.4498784,6.67547384 C79.4498784,6.21143497 79.3530068,5.84191533 79.1592635,5.56652595 C78.964723,5.29152554 78.7183581,5.08109383 78.418973,4.93484185 C78.1191892,4.78897883 77.7755541,4.68940301 77.3880676,4.63805923 C77.0001824,4.58632648 76.6214662,4.56065459 76.2511216,4.56065459 L73.5550608,4.56065459 L73.5550608,8.71327743 L73.5550608,8.71327743 Z" id="Fill-7"></path>
                        <path d="M92.1516216,4.71546387 L87.2713649,4.71546387 C87.0174257,4.71546387 86.811723,4.51475636 86.811723,4.26698372 L86.811723,1.60449746 C86.811723,1.35672481 87.0174257,1.1560173 87.2713649,1.1560173 L101.155101,1.1560173 C101.409041,1.1560173 101.615142,1.35672481 101.615142,1.60449746 L101.615142,3.56256259 C101.615142,4.19930328 101.085736,4.71546387 100.433149,4.71546387 L96.2752432,4.71546387 L96.2752432,18.2639988 C96.2752432,18.9011284 95.7462365,19.417289 95.0936486,19.417289 L92.6112635,19.417289 C92.3573243,19.417289 92.1516216,19.2161926 92.1516216,18.9684199 L92.1516216,4.71546387" id="Fill-8"></path>
                        <path d="M115.270453,5.26313088 C115.101027,5.44400102 114.813601,5.45917077 114.626635,5.29541522 C114.338014,5.04219703 113.987601,4.84460126 113.576196,4.70262793 C113.003338,4.50503216 112.461574,4.40584531 111.950507,4.40584531 C111.650723,4.40584531 111.342568,4.44046346 111.025243,4.50892184 C110.708318,4.57776918 110.408534,4.68551333 110.126689,4.83137635 C109.844446,4.97762833 109.615223,5.17133442 109.439419,5.41171667 C109.262818,5.65287686 109.175115,5.94499186 109.175115,6.28883961 C109.175115,6.83922939 109.386399,7.26048178 109.809365,7.55259678 C110.232331,7.84510075 110.765324,8.0940403 111.408743,8.30058233 C112.051764,8.5067354 112.743818,8.71327743 113.483709,8.91981946 C114.224,9.12597252 114.915257,9.41847649 115.559074,9.79655343 C116.202095,10.1750193 116.735088,10.6822337 117.158054,11.3181964 C117.58102,11.9545481 117.792703,12.8059992 117.792703,13.8717716 C117.792703,14.8865893 117.598561,15.7718805 117.211074,16.5284234 C116.823189,17.2853552 116.298966,17.9127606 115.638405,18.4110287 C114.977446,18.9100747 114.210845,19.2795943 113.338601,19.5203656 C112.465959,19.7607478 111.545081,19.8817169 110.575966,19.8817169 C109.360088,19.8817169 108.231912,19.7008467 107.192236,19.3398844 C106.2885,19.0259872 105.438182,18.5432778 104.641284,17.8917564 C104.441959,17.7291677 104.424818,17.4354968 104.599426,17.2480142 L106.866142,14.8173529 C107.047926,14.62248 107.358872,14.6248138 107.544642,14.816186 C107.905818,15.1880395 108.32998,15.4879338 108.818324,15.7158691 C109.461345,16.0169304 110.126689,16.1670721 110.813959,16.1670721 C111.148426,16.1670721 111.488074,16.1285642 111.831709,16.0511596 C112.175345,15.9737549 112.4835,15.8578425 112.756973,15.7030332 C113.030047,15.5482239 113.250101,15.3506281 113.417932,15.1098569 C113.584966,14.8690857 113.668682,14.585528 113.668682,14.2587948 C113.668682,13.708405 113.453014,13.2747057 113.021277,12.9561409 C112.589142,12.637965 112.047378,12.3672432 111.395588,12.1435866 C110.743399,11.9203189 110.038189,11.6966623 109.280757,11.4730057 C108.522926,11.249738 107.817716,10.9486768 107.165926,10.5702109 C106.513736,10.1921339 105.971973,9.6934769 105.540236,9.07423977 C105.108101,8.45539161 104.892432,7.63894769 104.892432,6.62413006 C104.892432,5.64393059 105.090959,4.78431122 105.487216,4.04488296 C105.883872,3.30584368 106.41248,2.68660655 107.073439,2.18756055 C107.734399,1.68929249 108.496615,1.31510523 109.360088,1.06577671 C110.223162,0.816837167 111.113345,0.691589457 112.029838,0.691589457 C113.087453,0.691589457 114.109189,0.837841441 115.096243,1.13034541 C115.92623,1.37617321 116.688047,1.76202951 117.380899,2.28791431 C117.594176,2.44933605 117.622878,2.75312009 117.441095,2.94760411 L115.270453,5.26313088" id="Fill-9"></path>
                        <path d="M62.7185946,14.5555774 C62.5687027,14.9690505 62.9262905,15.7267602 62.9262905,15.7267602 C62.9262905,15.7267602 62.8031081,16.2802618 59.2519459,17.0270804 C59.2519459,17.0270804 58.2947905,16.4199013 58.0193243,14.1312133 C57.7908986,12.2318824 57.6824662,12.2163236 57.6597432,9.50793914 C57.6617365,9.48187828 57.6625338,9.45348361 57.6621351,9.42314411 C57.6402095,8.07964848 57.5935676,7.81981783 57.8343514,7.60860818 C57.8383378,7.60510747 57.8419257,7.60121779 57.8451149,7.59693914 C58.0791216,7.39273092 58.2266216,7.0959483 58.2266216,6.76571443 C58.2266216,6.14997802 57.7151554,5.65093202 57.0844932,5.65093202 C56.4534324,5.65093202 55.9419662,6.14997802 55.9419662,6.76571443 C55.9419662,7.10217179 56.0950473,7.40401099 56.337027,7.60821921 L56.3374257,7.60860818 C56.5642568,7.80775982 56.5359527,8.05047588 56.5136284,9.20221026 L56.5116351,9.20221026 C56.4928986,11.5395192 56.3872568,12.1540887 56.1492635,14.1312133 C55.8741959,16.4199013 54.9166419,17.0270804 54.9166419,17.0270804 C51.3654797,16.2802618 51.2422973,15.7267602 51.2422973,15.7267602 C51.2422973,15.7267602 51.5998851,14.9690505 51.4499932,14.5555774 C51.3188378,14.1934482 48.6415135,12.2509418 48.6415135,12.2509418 C48.6415135,12.2509418 48.7527365,14.1755557 50.1376419,16.4101771 C51.6369595,18.8299473 57.0840946,20.8105726 57.0840946,20.8105726 L57.0844932,20.8105726 C57.0844932,20.8105726 62.532027,18.8299473 64.0313446,16.4101771 C65.4158514,14.1755557 65.5270743,12.2509418 65.5270743,12.2509418 C65.5270743,12.2509418 62.84975,14.1934482 62.7185946,14.5555774 L62.7185946,14.5555774 Z M57.0844932,7.23053124 C56.8209865,7.23053124 56.6077095,7.02243334 56.6077095,6.76571443 C56.6077095,6.50860655 56.8209865,6.30050865 57.0844932,6.30050865 C57.3476014,6.30050865 57.5608784,6.50860655 57.5608784,6.76571443 C57.5608784,7.02243334 57.3476014,7.23053124 57.0844932,7.23053124 L57.0844932,7.23053124 Z" id="Fill-10"></path>
                        <path d="M65.8631351,6.28261612 C64.2494054,4.21525097 59.2148716,0.260612864 57.1271486,0.15987014 L57.1263514,0.157536332 C57.1135946,0.157536332 57.0996419,0.158703236 57.0864865,0.158703236 L57.0836959,0.158703236 C57.0701419,0.158703236 57.0565878,0.157536332 57.0438311,0.157536332 L57.0430338,0.15987014 C54.9553108,0.260612864 49.920777,4.21525097 48.3070473,6.28261612 C47.5444324,7.25970385 48.6415135,11.9265424 48.6415135,11.9265424 C48.6415135,11.9265424 48.3580743,8.30369408 49.0274054,7.08933584 C49.7322162,5.81118685 54.7041622,2.47734175 57.0354595,2.28985915 C57.0526014,2.28908121 57.0681486,2.28635844 57.0836959,2.28246876 L57.0848919,2.28246876 L57.0864865,2.28246876 C57.1020338,2.28635844 57.1175811,2.28908121 57.134723,2.28985915 C59.4660203,2.47734175 64.4375676,5.81118685 65.142777,7.08933584 C65.8121081,8.30369408 65.5286689,11.9265424 65.5286689,11.9265424 C65.5286689,11.9265424 66.62575,7.25970385 65.8631351,6.28261612" id="Fill-11"></path>
                        <path d="M59.0892973,6.28456096 C59.0398649,6.0138392 58.92625,5.73533808 58.7440676,5.48795441 C58.5626824,5.24134867 58.3151216,5.02469347 58.0213176,4.87766355 C57.7291081,4.72713291 57.3914527,4.65050621 57.0561892,4.65206208 C56.8883581,4.65439589 56.720527,4.67578913 56.558277,4.71546387 C56.3956284,4.75474964 56.2405541,4.8173735 56.0950473,4.8928333 C55.9491419,4.96790413 55.8155946,5.0620344 55.696,5.16705577 C55.5764054,5.27207714 55.4699662,5.38876756 55.3822635,5.51440423 C55.2048649,5.76451069 55.0944392,6.04417871 55.0497905,6.3156784 C55.0454054,6.34951862 55.0406216,6.38335884 55.0358378,6.4168101 C55.0330473,6.45065032 55.0302568,6.48410157 55.0274662,6.51755282 C55.0262703,6.55178201 55.0250743,6.58562223 55.0238784,6.61946245 C55.0246757,6.64980195 55.025473,6.68014146 55.0262703,6.710092 L55.0266689,6.71903827 L55.0270676,6.72526175 L55.0298581,6.76104681 C55.0310541,6.77660554 55.0326486,6.79255323 55.0338446,6.80811195 C55.0358378,6.83961836 55.0406216,6.87034683 55.0454054,6.90068634 C55.0529797,6.96175433 55.0661351,7.02087747 55.0792905,7.07844474 C55.1378919,7.30754692 55.2311757,7.50475371 55.3376149,7.66150784 C55.4436554,7.81865093 55.5596622,7.93689721 55.6609189,8.02480399 C55.7609797,8.11387767 55.8522703,8.16872217 55.9120676,8.20645207 C55.9742568,8.24068125 56.0073446,8.25896275 56.0073446,8.25896275 C56.0073446,8.25896275 55.9794392,8.2340688 55.9264189,8.18739263 C55.9009054,8.16327661 55.8698108,8.13332607 55.8351284,8.09754101 C55.8012432,8.06020008 55.7613784,8.0185805 55.7215135,7.96840362 C55.6409865,7.86921677 55.5548784,7.74046835 55.4799324,7.58371423 C55.4695676,7.56465479 55.4619932,7.54403949 55.453223,7.52342418 C55.4444527,7.50319784 55.4356824,7.48219357 55.4265135,7.46118929 C55.4189392,7.43979605 55.4113649,7.41801384 55.4033919,7.39584266 C55.3994054,7.38495156 55.3954189,7.37367148 55.3914324,7.36239141 C55.3882432,7.35111134 55.3850541,7.33983126 55.3818649,7.32816222 C55.3527635,7.23675473 55.334027,7.13795685 55.3196757,7.03526929 C55.3148919,6.98353654 55.3081149,6.93102585 55.3077162,6.87734826 C55.3065203,6.85050946 55.3049257,6.82367067 55.3065203,6.79605394 C55.3073176,6.76999308 55.3081149,6.74354325 55.3089122,6.71709343 C55.3109054,6.68714289 55.3132973,6.65719235 55.3156892,6.62685284 C55.319277,6.60001404 55.3228649,6.57317525 55.3264527,6.54594749 C55.3312365,6.51794179 55.3364189,6.48993609 55.3416014,6.46154142 C55.3479797,6.43353572 55.3543581,6.40553002 55.3611351,6.37713536 C55.4185405,6.15114492 55.5277703,5.9274883 55.6848378,5.72989253 C55.8419054,5.53268573 56.0480068,5.3638736 56.2852027,5.24718319 C56.5223986,5.13010381 56.7898919,5.06592408 57.0593784,5.06514614 L57.0717365,5.06475717 L57.0809054,5.06514614 L57.1092095,5.06553511 L57.1658176,5.06670202 C57.1977095,5.06981376 57.2280068,5.0705917 57.2610946,5.07448138 C57.2941824,5.07876002 57.3276689,5.0814828 57.3607568,5.08770629 L57.4101892,5.09626359 L57.459223,5.10676572 C57.5899797,5.13632729 57.7171486,5.17794688 57.8363446,5.23551415 L57.8809932,5.25690739 L57.9244459,5.28063444 C57.9539459,5.29541522 57.9814527,5.31330775 58.0093581,5.33003338 C58.0376622,5.34675901 58.0643716,5.36581844 58.0918784,5.383322 C58.1177905,5.40277041 58.1448986,5.4210519 58.1700135,5.44127824 C58.2720676,5.52140566 58.3633581,5.61203521 58.4442838,5.70888826 C58.6045405,5.90376125 58.7165608,6.12625097 58.7779527,6.3510745 C58.8094459,6.46309729 58.8273851,6.57628699 58.8353581,6.68636495 L58.8373514,6.70698026 L58.83775,6.71242581 L58.83775,6.71475962 C58.83775,6.71475962 58.8381486,6.72098311 58.8381486,6.71320375 L58.8385473,6.72448382 C58.8389459,6.7392646 58.8389459,6.75404539 58.8393446,6.76843721 C58.8397432,6.79722084 58.8417365,6.82872725 58.8397432,6.85323224 C58.8389459,6.87890413 58.8381486,6.90457602 58.8373514,6.92985895 C58.8345608,6.95630877 58.8321689,6.98236963 58.829777,7.00804152 C58.8281824,7.03410238 58.8241959,7.0593853 58.8202095,7.08427926 C58.8158243,7.10956218 58.8130338,7.1348451 58.8078514,7.15896112 C58.7966892,7.2079711 58.7871216,7.25581417 58.7731689,7.3017124 C58.7488514,7.39467576 58.7137703,7.47947079 58.6794865,7.55920924 C58.6069324,7.7167413 58.5232162,7.84665663 58.4438851,7.94739935 C58.4048176,7.99796519 58.3661486,8.04036271 58.3326622,8.07809261 C58.2983784,8.11504458 58.2672838,8.14499512 58.2425676,8.16988907 C58.1907432,8.2169542 58.1628378,8.24223713 58.1628378,8.24223713 C58.1628378,8.24223713 58.1959257,8.22356666 58.2577162,8.18855954 C58.3167162,8.14927376 58.4072095,8.0940403 58.5060743,8.00302178 C58.6057365,7.91355913 58.71975,7.79375697 58.8237973,7.63466904 C58.9258514,7.47597008 59.0195338,7.27837431 59.0717568,7.04771626 C59.0781351,7.01893263 59.0849122,6.98976002 59.0904932,6.95980949 C59.095277,6.92908101 59.0996622,6.89796357 59.1040473,6.86645715 C59.1096284,6.83339487 59.1104257,6.80694504 59.1136149,6.7769945 C59.1148108,6.76221372 59.1160068,6.74743293 59.1172027,6.73265215 L59.118,6.72176104 L59.1183986,6.70542438 L59.1191959,6.68169733 C59.1231824,6.55333788 59.1136149,6.41992184 59.0892973,6.28456096" id="Fill-12"></path>
                    </g>
                </g>
            </g>
        </g>
    </g>
</svg>