<?xml version="1.0" encoding="utf-8"?>
<!-- Generator: Adobe Illustrator 19.0.0, SVG Export Plug-In . SVG Version: 6.00 Build 0)  -->
<svg version="1.1" id="图层_1" xmlns="http://www.w3.org/2000/svg" xmlns:xlink="http://www.w3.org/1999/xlink" x="0px" y="0px"
	 viewBox="0 0 1920.3 839.7" style="enable-background:new 0 0 1920.3 839.7;" xml:space="preserve">
<style type="text/css">
	.st0{fill:#CAEBFC;}
	.st1{fill:#EEFDFF;}
</style>
<path id="XMLID_346_" class="st0" d="M1867.9,35.8c-26,0-48.7-14.5-60.4-35.8h-11.8c-11.7,21.3-34.4,35.8-60.4,35.8
	s-48.7-14.5-60.4-35.8h-11.8c-11.7,21.3-34.4,35.8-60.4,35.8c-0.3,0-0.7,0-1,0c-24.9-0.9-46.4-15.1-57.7-35.7h-11.8
	c-11.7,21.3-34.4,35.8-60.4,35.8s-48.7-14.5-60.4-35.8h-11.8c-11.7,21.3-34.4,35.8-60.4,35.8s-48.7-14.5-60.4-35.8H1267
	c-11.7,21.3-34.4,35.8-60.4,35.8s-48.7-14.5-60.4-35.8h-11.8c-11.7,21.3-34.4,35.8-60.4,35.8s-48.7-14.5-60.4-35.8h-11.5
	c-11.7,21.3-34.4,35.8-60.4,35.8S893,21.4,881.3,0.1h-11.8c-11.7,21.3-34.4,35.8-60.4,35.8s-48.7-14.5-60.4-35.8h-11.8
	c-11.7,21.3-34.4,35.8-60.4,35.8s-48.7-14.5-60.4-35.8h-11.8c-11.7,21.3-34.4,35.8-60.4,35.8s-48.7-14.5-60.4-35.8h-11.8
	c-11.7,21.3-34.4,35.8-60.4,35.8s-48.7-14.5-60.4-35.8h-11.8c-11.7,21.3-34.4,35.8-60.4,35.8S230,21.4,218.3,0.1h-11.8
	c-11.7,21.3-34.4,35.8-60.4,35.8S97.4,21.4,85.7,0.1H74.2C62.5,21.4,39.8,35.9,13.8,35.9c-4.7,0-9.3-0.5-13.8-1.4v805.2h1920.3V11.5
	C1907.7,26.4,1888.9,35.8,1867.9,35.8z"/>
<path id="XMLID_337_" class="st1" d="M410,234.7c0,14.2-11.5,25.7-25.7,25.7s-25.7-11.5-25.7-25.7s11.5-25.7,25.7-25.7
	S410,220.5,410,234.7z M443.5,298.2c-14.2,0-25.7,11.5-25.7,25.7s11.5,25.7,25.7,25.7s25.7-11.5,25.7-25.7S457.6,298.2,443.5,298.2z
	 M421.7,104.1c-8.3,0-15.1,6.7-15.1,15.1s6.7,15.1,15.1,15.1s15.1-6.7,15.1-15.1S430,104.1,421.7,104.1z M411.7,374.1
	c-8.3,0-15.1,6.7-15.1,15.1c0,8.3,6.7,15.1,15.1,15.1s15.1-6.7,15.1-15.1C426.7,380.8,420,374.1,411.7,374.1z M450.4,212.4
	c-5.7,0-10.3,4.6-10.3,10.3s4.6,10.3,10.3,10.3s10.3-4.6,10.3-10.3C460.8,217,456.1,212.4,450.4,212.4z M417.8,169.4
	c-4.3,0-7.8,3.5-7.8,7.8s3.5,7.8,7.8,7.8s7.8-3.5,7.8-7.8S422.1,169.4,417.8,169.4z M376.8,310.5c-5.7,0-10.3,4.6-10.3,10.3
	s4.6,10.3,10.3,10.3c5.7,0,10.3-4.6,10.3-10.3S382.5,310.5,376.8,310.5z M425.9,263.1c-2.6,0-4.7,2.1-4.7,4.7s2.1,4.7,4.7,4.7
	s4.7-2.1,4.7-4.7S428.5,263.1,425.9,263.1z"/>
<path id="XMLID_328_" class="st1" d="M1528,307.7c0,14.2-11.5,25.7-25.7,25.7s-25.7-11.5-25.7-25.7s11.5-25.7,25.7-25.7
	S1528,293.5,1528,307.7z M1561.5,371.2c-14.2,0-25.7,11.5-25.7,25.7s11.5,25.7,25.7,25.7s25.7-11.5,25.7-25.7
	S1575.6,371.2,1561.5,371.2z M1539.7,177.1c-8.3,0-15.1,6.7-15.1,15.1s6.7,15.1,15.1,15.1c8.3,0,15.1-6.7,15.1-15.1
	S1548,177.1,1539.7,177.1z M1529.7,447.1c-8.3,0-15.1,6.7-15.1,15.1c0,8.3,6.7,15.1,15.1,15.1c8.3,0,15.1-6.7,15.1-15.1
	C1544.7,453.8,1538,447.1,1529.7,447.1z M1568.4,285.4c-5.7,0-10.3,4.6-10.3,10.3s4.6,10.3,10.3,10.3c5.7,0,10.3-4.6,10.3-10.3
	C1578.8,290,1574.1,285.4,1568.4,285.4z M1535.8,242.4c-4.3,0-7.8,3.5-7.8,7.8s3.5,7.8,7.8,7.8s7.8-3.5,7.8-7.8
	S1540.1,242.4,1535.8,242.4z M1494.8,383.5c-5.7,0-10.3,4.6-10.3,10.3s4.6,10.3,10.3,10.3s10.3-4.6,10.3-10.3
	S1500.5,383.5,1494.8,383.5z M1543.9,336.1c-2.6,0-4.7,2.1-4.7,4.7c0,2.6,2.1,4.7,4.7,4.7s4.7-2.1,4.7-4.7
	S1546.5,336.1,1543.9,336.1z"/>
</svg>
