<?xml version="1.0" encoding="UTF-8" standalone="no"?>
<svg width="295px" height="288px" viewBox="0 0 295 288" version="1.1" xmlns="http://www.w3.org/2000/svg" xmlns:xlink="http://www.w3.org/1999/xlink" xmlns:sketch="http://www.bohemiancoding.com/sketch/ns">
    <!-- Generator: Sketch 3.4.3 (16044) - http://www.bohemiancoding.com/sketch -->
    <title>e-ports.logo</title>
    <desc>Created with Sketch.</desc>
    <defs>
        <path id="path-1" d="M0,0.32 L295.011,0.32 L295.011,288 L0,288 L0,0.32 Z"></path>
    </defs>
    <g id="Page-1" stroke="none" stroke-width="1" fill="none" fill-rule="evenodd" sketch:type="MSPage">
        <g id="Desktop" sketch:type="MSArtboardGroup" transform="translate(-364.000000, -368.000000)">
            <g id="e-ports.logo" sketch:type="MSLayerGroup" transform="translate(364.000000, 368.000000)">
                <mask id="mask-2" sketch:name="Clip 18" fill="white">
                    <use xlink:href="#path-1"></use>
                </mask>
                <g id="Clip-18"></g>
                <path d="M142.1715,58.7673 C140.0485,58.7673 138.3285,57.0463 138.3285,54.9243 C138.3285,52.8013 140.0485,51.0803 142.1715,51.0803 C144.2945,51.0803 146.0145,52.8013 146.0145,54.9243 C146.0145,57.0463 144.2945,58.7673 142.1715,58.7673 M187.5995,119.2963 C186.3925,122.7143 189.2745,128.9763 189.2745,128.9763 C189.2745,128.9763 188.2805,133.5483 159.6495,139.7193 C159.6495,139.7193 151.9295,134.7023 149.7105,115.7893 C147.8695,100.0963 146.9925,99.9673 146.8105,77.5863 C146.8255,77.3693 146.8335,77.1373 146.8295,76.8863 C146.6525,65.7843 146.2775,63.6353 148.2195,61.8903 C148.2505,61.8613 148.2785,61.8293 148.3045,61.7943 C150.1925,60.1073 151.3825,57.6553 151.3825,54.9243 C151.3825,49.8363 147.2585,45.7123 142.1715,45.7123 C137.0845,45.7123 132.9605,49.8363 132.9605,54.9243 C132.9605,57.7063 134.1965,60.1993 136.1465,61.8883 L136.1485,61.8903 C137.9785,63.5353 137.7505,65.5413 137.5705,75.0603 L137.5525,75.0603 C137.4045,94.3733 136.5495,99.4513 134.6325,115.7893 C132.4135,134.7023 124.6935,139.7193 124.6935,139.7193 C96.0625,133.5483 95.0685,128.9763 95.0685,128.9763 C95.0685,128.9763 97.9505,122.7143 96.7435,119.2963 C95.6875,116.3033 74.0985,100.2543 74.0985,100.2543 C74.0985,100.2543 74.9955,116.1573 86.1605,134.6233 C98.2495,154.6173 142.1685,170.9843 142.1685,170.9843 L142.1715,170.9833 L142.1735,170.9843 C142.1735,170.9843 186.0935,154.6173 198.1825,134.6233 C209.3475,116.1573 210.2445,100.2543 210.2445,100.2543 C210.2445,100.2543 188.6555,116.3033 187.5995,119.2963" id="Fill-1" fill="#F39700" sketch:type="MSShapeGroup" mask="url(#mask-2)"></path>
                <path d="M212.9526,50.9341 C199.9436,33.8511 159.3506,1.1711 142.5156,0.3391 C142.5146,0.3341 142.5106,0.3201 142.5106,0.3201 C142.4066,0.3201 142.2966,0.3271 142.1896,0.3301 L142.1776,0.3291 C142.1776,0.3291 142.1696,0.3301 142.1656,0.3301 C142.0586,0.3271 141.9486,0.3201 141.8446,0.3201 L141.8396,0.3391 C125.0046,1.1711 84.4116,33.8511 71.4026,50.9341 C65.2536,59.0091 74.0986,97.5701 74.0986,97.5701 C74.0986,97.5701 71.8126,67.6331 77.2106,57.6001 C82.8936,47.0371 122.9796,19.4871 141.7776,17.9381 C141.9146,17.9321 142.0426,17.9091 142.1656,17.8771 C142.1696,17.8781 142.1736,17.8781 142.1776,17.8791 C142.1776,17.8791 142.1856,17.8781 142.1896,17.8771 C142.3126,17.9091 142.4406,17.9321 142.5776,17.9381 C161.3746,19.4871 201.4606,47.0371 207.1446,57.6001 C212.5426,67.6331 210.2566,97.5701 210.2566,97.5701 C210.2566,97.5701 219.1016,59.0091 212.9526,50.9341" id="Fill-3" fill="#004587" sketch:type="MSShapeGroup" mask="url(#mask-2)"></path>
                <path d="M158.3368,50.9476 C157.9378,48.7106 157.0218,46.4106 155.5548,44.3676 C154.0898,42.3306 152.0968,40.5376 149.7248,39.3226 C147.3698,38.0806 144.6468,37.4466 141.9438,37.4596 C140.5918,37.4776 139.2388,37.6536 137.9308,37.9826 C136.6198,38.3076 135.3678,38.8246 134.1938,39.4476 C133.0178,40.0696 131.9408,40.8456 130.9778,41.7156 C130.0128,42.5836 129.1548,43.5456 128.4488,44.5856 C127.0168,46.6506 126.1278,48.9616 125.7678,51.2056 C125.7308,51.4866 125.6938,51.7666 125.6568,52.0436 C125.6328,52.3226 125.6108,52.5996 125.5878,52.8736 C125.5778,53.1576 125.5688,53.4386 125.5598,53.7176 C125.5658,53.9686 125.5718,54.2176 125.5778,54.4646 L125.5788,54.4876 C125.5788,54.4876 125.5788,54.5576 125.5798,54.5406 L125.5838,54.5896 L125.5918,54.6886 L125.6078,54.8856 C125.6178,55.0166 125.6288,55.1466 125.6388,55.2756 C125.6538,55.5346 125.6928,55.7896 125.7308,56.0416 C125.7918,56.5466 125.8998,57.0346 126.0058,57.5106 C126.4768,59.4036 127.2288,61.0336 128.0888,62.3266 C128.9428,63.6276 129.8788,64.6026 130.6948,65.3296 C131.5008,66.0666 132.2388,66.5176 132.7208,66.8316 C133.2218,67.1146 133.4888,67.2656 133.4888,67.2656 C133.4888,67.2656 133.2618,67.0596 132.8348,66.6736 C132.6298,66.4726 132.3808,66.2276 132.0978,65.9316 C131.8268,65.6216 131.5058,65.2796 131.1848,64.8646 C130.5328,64.0446 129.8388,62.9786 129.2348,61.6866 C129.1528,61.5286 129.0908,61.3566 129.0198,61.1886 C128.9498,61.0186 128.8788,60.8476 128.8068,60.6736 C128.7448,60.4956 128.6818,60.3146 128.6188,60.1326 C128.5868,60.0416 128.5558,59.9496 128.5238,59.8576 C128.4968,59.7626 128.4708,59.6686 128.4438,59.5726 C128.2088,58.8176 128.0578,58.0006 127.9428,57.1526 C127.9048,56.7246 127.8508,56.2926 127.8458,55.8476 C127.8368,55.6256 127.8248,55.4026 127.8368,55.1766 C127.8428,54.9606 127.8488,54.7426 127.8558,54.5226 C127.8738,54.2756 127.8928,54.0276 127.9118,53.7776 C127.9398,53.5566 127.9688,53.3346 127.9968,53.1096 C128.0378,52.8796 128.0778,52.6476 128.1188,52.4136 C128.1718,52.1816 128.2238,51.9486 128.2778,51.7136 C128.7398,49.8476 129.6228,47.9976 130.8868,46.3656 C132.1528,44.7366 133.8158,43.3426 135.7288,42.3766 C137.6408,41.4106 139.7958,40.8806 141.9708,40.8726 L142.0708,40.8706 L142.0858,40.8706 L142.1428,40.8716 L142.3718,40.8766 L142.8278,40.8866 C143.0848,40.9106 143.3288,40.9186 143.5958,40.9496 C143.8648,40.9856 144.1348,41.0066 144.4008,41.0606 L144.8008,41.1296 L145.1958,41.2176 C146.2478,41.4596 147.2748,41.8046 148.2348,42.2806 L148.5948,42.4576 L148.9448,42.6526 C149.1818,42.7766 149.4048,42.9236 149.6308,43.0626 C149.8588,43.1986 150.0728,43.3576 150.2948,43.5026 C150.5048,43.6636 150.7218,43.8146 150.9258,43.9826 C151.7488,44.6446 152.4848,45.3936 153.1378,46.1916 C154.4298,47.8026 155.3308,49.6426 155.8258,51.4976 C156.0798,52.4256 156.2238,53.3586 156.2908,54.2706 L156.3048,54.4416 L156.3088,54.4846 L156.3108,54.5056 C156.3108,54.4966 156.3108,54.5546 156.3128,54.4916 L156.3148,54.5836 C156.3178,54.7056 156.3198,54.8276 156.3228,54.9496 C156.3248,55.1856 156.3418,55.4476 156.3268,55.6486 C156.3188,55.8616 156.3118,56.0736 156.3048,56.2836 C156.2848,56.5006 156.2658,56.7156 156.2458,56.9276 C156.2318,57.1426 156.2008,57.3526 156.1668,57.5596 C156.1318,57.7666 156.1098,57.9756 156.0668,58.1766 C155.9778,58.5786 155.8998,58.9766 155.7868,59.3556 C155.5908,60.1226 155.3078,60.8236 155.0338,61.4826 C154.4488,62.7836 153.7718,63.8586 153.1348,64.6896 C152.8178,65.1086 152.5058,65.4586 152.2368,65.7716 C151.9608,66.0746 151.7108,66.3226 151.5108,66.5276 C151.0918,66.9186 150.8688,67.1276 150.8688,67.1276 C150.8688,67.1276 151.1338,66.9726 151.6328,66.6816 C152.1078,66.3586 152.8378,65.9016 153.6338,65.1496 C154.4388,64.4106 155.3588,63.4206 156.1958,62.1076 C157.0178,60.7936 157.7748,59.1626 158.1968,57.2556 C158.2478,57.0166 158.3038,56.7786 158.3478,56.5296 C158.3838,56.2746 158.4208,56.0176 158.4568,55.7576 C158.5008,55.4846 158.5078,55.2656 158.5318,55.0176 C158.5418,54.8976 158.5518,54.7756 158.5618,54.6536 L158.5698,54.5616 L158.5728,54.4286 L158.5778,54.2306 C158.6118,53.1716 158.5328,52.0676 158.3368,50.9476" id="Fill-5" fill="#F39700" sketch:type="MSShapeGroup" mask="url(#mask-2)"></path>
                <path d="M1.1532,237.4703 L30.7422,237.4703 C31.3792,237.4703 31.8952,237.9863 31.8952,238.6233 L31.8952,244.0543 C31.8952,245.6913 30.5682,247.0183 28.9312,247.0183 L10.3442,247.0183 L10.3442,255.7723 L29.5482,255.7723 C30.1852,255.7723 30.7022,256.2883 30.7022,256.9253 L30.7022,262.3563 C30.7022,263.9933 29.3742,265.3203 27.7372,265.3203 L10.3442,265.3203 L10.3442,274.8693 L31.9352,274.8693 C32.5722,274.8693 33.0892,275.3853 33.0892,276.0223 L33.0892,281.4533 C33.0892,283.0913 31.7612,284.4183 30.1242,284.4183 L1.1532,284.4183 C0.5162,284.4183 0.0002,283.9013 0.0002,283.2643 L0.0002,238.6233 C0.0002,237.9863 0.5162,237.4703 1.1532,237.4703" id="Fill-7" fill="#004587" sketch:type="MSShapeGroup" mask="url(#mask-2)"></path>
                <path d="M61.9425,263.928 L45.3205,263.928 C44.6835,263.928 44.1675,263.412 44.1675,262.775 L44.1675,257.124 C44.1675,256.487 44.6835,255.971 45.3205,255.971 L63.7535,255.971 C64.3905,255.971 64.9065,256.487 64.9065,257.124 L64.9065,260.964 C64.9065,262.601 63.5795,263.928 61.9425,263.928" id="Fill-9" fill="#004587" sketch:type="MSShapeGroup" mask="url(#mask-2)"></path>
                <path d="M87.0074,257.3634 L93.9034,257.3634 C94.8324,257.3634 95.7274,257.2754 96.5894,257.0984 C97.4514,256.9224 98.2244,256.6234 98.9094,256.2024 C99.5944,255.7834 100.1474,255.2084 100.5674,254.4784 C100.9874,253.7494 101.1974,252.8324 101.1974,251.7264 C101.1974,250.5334 100.9214,249.5714 100.3684,248.8424 C99.8154,248.1134 99.1094,247.5494 98.2464,247.1514 C97.3844,246.7534 96.4234,246.4994 95.3624,246.3894 C94.3014,246.2794 93.2844,246.2234 92.3124,246.2234 L87.0074,246.2234 L87.0074,257.3634 Z M76.6624,238.6234 C76.6624,237.9864 77.1794,237.4704 77.8164,237.4704 L94.1024,237.4704 C96.5334,237.4704 98.8324,237.6924 100.9984,238.1334 C103.1644,238.5754 105.0544,239.3384 106.6684,240.4214 C108.2814,241.5044 109.5634,242.9634 110.5144,244.7974 C111.4644,246.6324 111.9404,248.9424 111.9404,251.7264 C111.9404,254.4684 111.4974,256.7664 110.6134,258.6234 C109.7294,260.4804 108.5134,261.9614 106.9664,263.0654 C105.4184,264.1714 103.5854,264.9564 101.4634,265.4204 C99.3414,265.8844 97.0414,266.1164 94.5664,266.1164 L87.0074,266.1164 L87.0074,281.4534 C87.0074,283.0904 85.6804,284.4184 84.0434,284.4184 L77.8164,284.4184 C77.1794,284.4184 76.6624,283.9014 76.6624,283.2644 L76.6624,238.6234 Z" id="Fill-11" fill="#004587" sketch:type="MSShapeGroup" mask="url(#mask-2)"></path>
                <path d="M184.0422,256.8992 L190.1422,256.8992 C191.0712,256.8992 192.0542,256.8662 193.0932,256.8002 C194.1312,256.7332 195.0712,256.5342 195.9122,256.2032 C196.7512,255.8712 197.4472,255.3522 198.0002,254.6452 C198.5522,253.9382 198.8292,252.9432 198.8292,251.6612 C198.8292,250.4672 198.5862,249.5172 198.1002,248.8092 C197.6132,248.1032 196.9942,247.5612 196.2432,247.1852 C195.4912,246.8102 194.6292,246.5552 193.6572,246.4222 C192.6842,246.2892 191.7342,246.2232 190.8062,246.2232 L184.0422,246.2232 L184.0422,256.8992 Z M173.6972,238.6232 C173.6972,237.9862 174.2142,237.4702 174.8512,237.4702 L191.8672,237.4702 C194.2542,237.4702 196.5192,237.7022 198.6632,238.1662 C200.8072,238.6312 202.6852,239.4042 204.3002,240.4872 C205.9132,241.5712 207.1952,243.0302 208.1462,244.8642 C209.0962,246.6992 209.5712,248.9862 209.5712,251.7272 C209.5712,255.0422 208.7092,257.8602 206.9852,260.1822 C205.2612,262.5022 202.7412,263.9722 199.4262,264.5912 L210.3092,282.6702 C210.7722,283.4382 210.2192,284.4182 209.3212,284.4182 L199.6602,284.4182 C199.2312,284.4182 198.8372,284.1792 198.6382,283.7992 L189.1482,265.6522 L184.0422,265.6522 L184.0422,281.4542 C184.0422,283.0912 182.7152,284.4182 181.0782,284.4182 L174.8512,284.4182 C174.2142,284.4182 173.6972,283.9022 173.6972,283.2652 L173.6972,238.6232 Z" id="Fill-13" fill="#004587" sketch:type="MSShapeGroup" mask="url(#mask-2)"></path>
                <path d="M230.691,246.6212 L218.45,246.6212 C217.813,246.6212 217.296,246.1052 217.296,245.4682 L217.296,238.6232 C217.296,237.9862 217.813,237.4702 218.45,237.4702 L253.277,237.4702 C253.914,237.4702 254.43,237.9862 254.43,238.6232 L254.43,243.6572 C254.43,245.2942 253.103,246.6212 251.466,246.6212 L241.035,246.6212 L241.035,281.4532 C241.035,283.0912 239.708,284.4182 238.071,284.4182 L231.844,284.4182 C231.207,284.4182 230.691,283.9012 230.691,283.2652 L230.691,246.6212 Z" id="Fill-15" fill="#004587" sketch:type="MSShapeGroup" mask="url(#mask-2)"></path>
                <path d="M288.6845,248.0291 C288.2595,248.4941 287.5385,248.5331 287.0695,248.1121 C286.3455,247.4611 285.4665,246.9531 284.4345,246.5881 C282.9975,246.0801 281.6385,245.8261 280.3565,245.8261 C279.6045,245.8261 278.8315,245.9141 278.0355,246.0911 C277.2395,246.2681 276.4875,246.5451 275.7815,246.9201 C275.0735,247.2961 274.4985,247.7931 274.0575,248.4111 C273.6145,249.0311 273.3945,249.7821 273.3945,250.6661 C273.3945,252.0811 273.9245,253.1641 274.9855,253.9151 C276.0465,254.6671 277.3825,255.3081 278.9975,255.8381 C280.6105,256.3691 282.3455,256.8991 284.2025,257.4301 C286.0595,257.9601 287.7935,258.7121 289.4075,259.6841 C291.0215,260.6571 292.3585,261.9621 293.4195,263.5961 C294.4805,265.2331 295.0115,267.4211 295.0115,270.1611 C295.0115,272.7701 294.5245,275.0461 293.5525,276.9911 C292.5795,278.9371 291.2645,280.5501 289.6065,281.8321 C287.9495,283.1141 286.0265,284.0651 283.8375,284.6831 C281.6495,285.3021 279.3395,285.6121 276.9085,285.6121 C273.8585,285.6121 271.0285,285.1471 268.4205,284.2191 C266.1535,283.4121 264.0205,282.1721 262.0205,280.4961 C261.5215,280.0781 261.4785,279.3231 261.9165,278.8421 L267.6025,272.5931 C268.0585,272.0911 268.8385,272.0981 269.3045,272.5901 C270.2105,273.5451 271.2745,274.3161 272.4985,274.9021 C274.1115,275.6761 275.7815,276.0631 277.5055,276.0631 C278.3445,276.0631 279.1965,275.9631 280.0585,275.7641 C280.9205,275.5651 281.6935,275.2671 282.3795,274.8691 C283.0645,274.4711 283.6165,273.9641 284.0365,273.3441 C284.4565,272.7261 284.6665,271.9961 284.6665,271.1561 C284.6665,269.7421 284.1245,268.6261 283.0425,267.8071 C281.9585,266.9901 280.5995,266.2941 278.9645,265.7191 C277.3285,265.1441 275.5595,264.5691 273.6595,263.9941 C271.7575,263.4201 269.9895,262.6461 268.3545,261.6731 C266.7185,260.7021 265.3595,259.4191 264.2765,257.8271 C263.1925,256.2361 262.6515,254.1371 262.6515,251.5281 C262.6515,249.0081 263.1495,246.7981 264.1435,244.8971 C265.1385,242.9971 266.4645,241.4051 268.1225,240.1221 C269.7805,238.8411 271.6915,237.8801 273.8585,237.2381 C276.0235,236.5981 278.2565,236.2761 280.5555,236.2761 C283.2075,236.2761 285.7715,236.6531 288.2475,237.4041 C290.3295,238.0371 292.2405,239.0291 293.9785,240.3801 C294.5135,240.7951 294.5855,241.5761 294.1285,242.0761 L288.6845,248.0291 Z" id="Fill-17" fill="#004587" sketch:type="MSShapeGroup" mask="url(#mask-2)"></path>
                <path d="M142.7259,253.0876 C142.0659,253.0876 141.5299,252.5526 141.5299,251.8916 C141.5299,251.2316 142.0659,250.6966 142.7259,250.6966 C143.3859,250.6966 143.9219,251.2316 143.9219,251.8916 C143.9219,252.5526 143.3859,253.0876 142.7259,253.0876 M156.8589,271.9186 C156.4839,272.9826 157.3799,274.9306 157.3799,274.9306 C157.3799,274.9306 157.0709,276.3526 148.1639,278.2736 C148.1639,278.2736 145.7619,276.7126 145.0719,270.8276 C144.4989,265.9456 144.2259,265.9056 144.1689,258.9426 C144.1739,258.8746 144.1759,258.8026 144.1749,258.7246 C144.1199,255.2706 144.0039,254.6026 144.6079,254.0596 C144.6169,254.0506 144.6259,254.0406 144.6339,254.0296 C145.2219,253.5046 145.5919,252.7416 145.5919,251.8916 C145.5919,250.3096 144.3089,249.0266 142.7259,249.0266 C141.1429,249.0266 139.8599,250.3096 139.8599,251.8916 C139.8599,252.7576 140.2449,253.5326 140.8519,254.0586 L140.8519,254.0596 C141.4209,254.5706 141.3509,255.1956 141.2949,258.1566 L141.2889,258.1566 C141.2429,264.1646 140.9769,265.7456 140.3799,270.8276 C139.6899,276.7126 137.2879,278.2736 137.2879,278.2736 C128.3809,276.3526 128.0719,274.9306 128.0719,274.9306 C128.0719,274.9306 128.9679,272.9826 128.5929,271.9186 C128.2639,270.9876 121.5469,265.9946 121.5469,265.9946 C121.5469,265.9946 121.8269,270.9426 125.2999,276.6876 C129.0609,282.9076 142.7249,287.9996 142.7249,287.9996 L142.7259,287.9996 L142.7269,287.9996 C142.7269,287.9996 156.3909,282.9076 160.1519,276.6876 C163.6249,270.9426 163.9049,265.9946 163.9049,265.9946 C163.9049,265.9946 157.1879,270.9876 156.8589,271.9186" id="Fill-20" fill="#F39700" sketch:type="MSShapeGroup" mask="url(#mask-2)"></path>
                <path d="M164.7471,250.6506 C160.7001,245.3356 148.0701,235.1686 142.8331,234.9096 L142.8311,234.9036 C142.7991,234.9036 142.7651,234.9056 142.7311,234.9066 L142.7281,234.9066 L142.7241,234.9066 C142.6911,234.9056 142.6571,234.9036 142.6241,234.9036 L142.6231,234.9096 C137.3851,235.1686 124.7561,245.3356 120.7081,250.6506 C118.7951,253.1626 121.5471,265.1596 121.5471,265.1596 C121.5471,265.1596 120.8361,255.8456 122.5161,252.7246 C124.2841,249.4386 136.7551,240.8666 142.6031,240.3846 C142.6461,240.3836 142.6861,240.3756 142.7241,240.3656 L142.7281,240.3666 L142.7311,240.3656 C142.7701,240.3756 142.8101,240.3836 142.8521,240.3846 C148.7001,240.8666 161.1721,249.4386 162.9401,252.7246 C164.6191,255.8456 163.9081,265.1596 163.9081,265.1596 C163.9081,265.1596 166.6601,253.1626 164.7471,250.6506" id="Fill-22" fill="#004587" sketch:type="MSShapeGroup" mask="url(#mask-2)"></path>
                <path d="M147.7552,250.6548 C147.6312,249.9588 147.3462,249.2428 146.8892,248.6078 C146.4342,247.9738 145.8142,247.4158 145.0762,247.0378 C144.3432,246.6518 143.4962,246.4548 142.6552,246.4588 C142.2342,246.4638 141.8132,246.5188 141.4062,246.6208 C140.9982,246.7218 140.6092,246.8828 140.2442,247.0768 C139.8782,247.2708 139.5432,247.5118 139.2432,247.7828 C138.9432,248.0528 138.6762,248.3518 138.4562,248.6758 C138.0112,249.3178 137.7342,250.0368 137.6222,250.7348 C137.6112,250.8228 137.5992,250.9098 137.5882,250.9958 C137.5802,251.0828 137.5732,251.1688 137.5662,251.2538 C137.5632,251.3428 137.5602,251.4298 137.5572,251.5168 C137.5592,251.5948 137.5612,251.6718 137.5632,251.7488 L137.5632,251.7558 L137.5642,251.7728 L137.5652,251.7878 L137.5672,251.8188 L137.5722,251.8798 C137.5762,251.9208 137.5792,251.9608 137.5822,252.0018 C137.5872,252.0818 137.5992,252.1608 137.6112,252.2398 C137.6302,252.3968 137.6632,252.5488 137.6962,252.6968 C137.8432,253.2858 138.0772,253.7928 138.3442,254.1948 C138.6102,254.5998 138.9012,254.9028 139.1552,255.1288 C139.4062,255.3588 139.6362,255.4988 139.7852,255.5968 C139.9412,255.6848 140.0252,255.7318 140.0252,255.7318 C140.0252,255.7318 139.9542,255.6678 139.8212,255.5478 C139.7572,255.4848 139.6802,255.4088 139.5922,255.3168 C139.5072,255.2198 139.4072,255.1138 139.3072,254.9848 C139.1052,254.7298 138.8892,254.3978 138.7012,253.9958 C138.6752,253.9468 138.6562,253.8928 138.6342,253.8408 C138.6122,253.7878 138.5902,253.7348 138.5682,253.6808 C138.5482,253.6248 138.5292,253.5688 138.5092,253.5118 C138.4992,253.4838 138.4902,253.4558 138.4802,253.4268 C138.4712,253.3978 138.4632,253.3678 138.4552,253.3378 C138.3822,253.1038 138.3352,252.8488 138.2992,252.5858 C138.2872,252.4518 138.2702,252.3178 138.2692,252.1788 C138.2662,252.1108 138.2622,252.0408 138.2662,251.9708 C138.2682,251.9028 138.2702,251.8358 138.2722,251.7668 C138.2782,251.6908 138.2832,251.6128 138.2892,251.5348 C138.2982,251.4668 138.3072,251.3978 138.3162,251.3278 C138.3282,251.2558 138.3412,251.1838 138.3542,251.1108 C138.3702,251.0388 138.3872,250.9658 138.4032,250.8928 C138.5472,250.3128 138.8222,249.7368 139.2152,249.2298 C139.6092,248.7228 140.1262,248.2888 140.7212,247.9888 C141.3162,247.6878 141.9872,247.5228 142.6632,247.5208 L142.6942,247.5198 L142.6992,247.5198 L142.7172,247.5198 L142.7882,247.5218 L142.9302,247.5248 C143.0102,247.5318 143.0862,247.5348 143.1692,247.5438 C143.2522,247.5558 143.3372,247.5618 143.4192,247.5788 L143.5442,247.5998 L143.6672,247.6278 C143.9942,247.7028 144.3132,247.8108 144.6122,247.9588 L144.7242,248.0138 L144.8332,248.0738 C144.9072,248.1128 144.9762,248.1578 145.0462,248.2018 C145.1172,248.2438 145.1842,248.2938 145.2532,248.3388 C145.3182,248.3888 145.3862,248.4358 145.4492,248.4878 C145.7052,248.6938 145.9342,248.9268 146.1382,249.1748 C146.5392,249.6758 146.8202,250.2488 146.9742,250.8258 C147.0532,251.1148 147.0982,251.4048 147.1182,251.6888 L147.1232,251.7418 L147.1242,251.7548 L147.1252,251.7618 C147.1252,251.7618 147.1252,251.7768 147.1252,251.7578 L147.1262,251.7858 C147.1272,251.8238 147.1282,251.8618 147.1282,251.8998 C147.1292,251.9738 147.1342,252.0548 147.1302,252.1168 C147.1272,252.1838 147.1252,252.2498 147.1232,252.3148 C147.1172,252.3828 147.1112,252.4488 147.1052,252.5158 C147.1002,252.5818 147.0912,252.6478 147.0802,252.7118 C147.0692,252.7768 147.0622,252.8408 147.0492,252.9038 C147.0212,253.0288 146.9972,253.1528 146.9622,253.2708 C146.9012,253.5098 146.8132,253.7268 146.7272,253.9328 C146.5452,254.3368 146.3352,254.6718 146.1362,254.9298 C146.0382,255.0608 145.9412,255.1698 145.8572,255.2668 C145.7712,255.3608 145.6942,255.4378 145.6312,255.5018 C145.5012,255.6238 145.4312,255.6888 145.4312,255.6888 C145.4312,255.6888 145.5142,255.6408 145.6692,255.5498 C145.8172,255.4498 146.0442,255.3068 146.2922,255.0728 C146.5422,254.8438 146.8292,254.5348 147.0892,254.1268 C147.3452,253.7178 147.5802,253.2108 147.7122,252.6178 C147.7272,252.5428 147.7452,252.4688 147.7582,252.3918 C147.7702,252.3118 147.7812,252.2318 147.7922,252.1508 C147.8062,252.0668 147.8082,251.9978 147.8162,251.9208 C147.8192,251.8838 147.8222,251.8458 147.8252,251.8078 L147.8282,251.7798 L147.8292,251.7378 L147.8302,251.6758 C147.8412,251.3468 147.8162,251.0028 147.7552,250.6548" id="Fill-24" fill="#F39700" sketch:type="MSShapeGroup" mask="url(#mask-2)"></path>
            </g>
        </g>
    </g>
</svg>