<?xml version="1.0" encoding="UTF-8" standalone="no"?>
<svg width="542px" height="124px" viewBox="0 0 542 124" version="1.1" xmlns="http://www.w3.org/2000/svg" xmlns:xlink="http://www.w3.org/1999/xlink">
    <!-- Generator: Sketch 3.8.1 (29687) - http://www.bohemiancoding.com/sketch -->
    <title>logo big copy</title>
    <desc>Created with Sketch.</desc>
    <defs>
        <filter x="-50%" y="-50%" width="200%" height="200%" filterUnits="objectBoundingBox" id="filter-1">
            <feOffset dx="0" dy="18" in="SourceAlpha" result="shadowOffsetOuter1"></feOffset>
            <feGaussianBlur stdDeviation="7" in="shadowOffsetOuter1" result="shadowBlurOuter1"></feGaussianBlur>
            <feColorMatrix values="0 0 0 0 0   0 0 0 0 0   0 0 0 0 0  0 0 0 0.5 0" type="matrix" in="shadowBlurOuter1" result="shadowMatrixOuter1"></feColorMatrix>
            <feMerge>
                <feMergeNode in="shadowMatrixOuter1"></feMergeNode>
                <feMergeNode in="SourceGraphic"></feMergeNode>
            </feMerge>
        </filter>
    </defs>
    <g id="Page-1" stroke="none" stroke-width="1" fill="none" fill-rule="evenodd">
        <g id="big-banner" transform="translate(-685.000000, -109.000000)" fill="#FFFFFF">
            <g id="logo-big" transform="translate(698.000000, 109.000000)">
                <g filter="url(#filter-1)" transform="translate(0.500000, 0.000000)">
                    <path d="M2.80896122,4.51276042 L54.3246537,4.51276042 C55.4331163,4.51276042 56.3332964,5.40973485 56.3332964,6.51600331 L56.3332964,15.9527438 C56.3332964,18.7974342 54.0222161,21.1039399 51.1718837,21.1039399 L18.8110526,21.1039399 L18.8110526,36.3140634 L52.246108,36.3140634 C53.3559972,36.3140634 54.2547507,37.2110379 54.2547507,38.3173063 L54.2547507,47.7540469 C54.2547507,50.5987372 51.9436704,52.9052429 49.093338,52.9052429 L18.8110526,52.9052429 L18.8110526,69.4978461 L56.4031994,69.4978461 C57.511662,69.4978461 58.4104155,70.3948205 58.4104155,71.501089 L58.4104155,80.9392533 C58.4104155,83.7839437 56.0993352,86.0890256 53.2490028,86.0890256 L2.80896122,86.0890256 C1.70049861,86.0890256 0.80031856,85.1920511 0.80031856,84.0857827 L0.80031856,6.51600331 C0.80031856,5.40973485 1.70049861,4.51276042 2.80896122,4.51276042" id="Fill-1"></path>
                    <path d="M108.646454,50.4862595 L79.7080194,50.4862595 C78.5981302,50.4862595 77.6993767,49.5878613 77.6993767,48.4815928 L77.6993767,38.6632822 C77.6993767,37.5570137 78.5981302,36.6586155 79.7080194,36.6586155 L111.800651,36.6586155 C112.909114,36.6586155 113.807867,37.5570137 113.807867,38.6632822 L113.807867,45.3350634 C113.807867,48.1797538 111.496787,50.4862595 108.646454,50.4862595" id="Fill-2"></path>
                    <path d="M134.275194,6.51600331 C134.275194,5.40973485 135.173947,4.51276042 136.283837,4.51276042 L164.638795,4.51276042 C168.871496,4.51276042 172.874515,4.89717803 176.646427,5.66458949 C180.416911,6.43342472 183.706634,7.7589536 186.517022,9.63975237 C189.325983,11.5233987 191.557175,14.0577074 193.213449,17.2441023 C194.868296,20.4319209 195.69572,24.4455256 195.69572,29.2849162 C195.69572,34.0488471 194.92536,38.0410952 193.386066,41.2673556 C191.846773,44.4950398 189.729709,47.069214 187.036302,48.9870308 C184.341468,50.9091188 181.148753,52.2716657 177.453878,53.0789427 C173.760429,53.8847959 169.75741,54.2877225 165.447673,54.2877225 L152.285928,54.2877225 L152.285928,80.9392533 C152.285928,83.7839437 149.974848,86.0890256 147.125942,86.0890256 L136.283837,86.0890256 C135.173947,86.0890256 134.275194,85.1920511 134.275194,84.0857827 L134.275194,6.51600331 L134.275194,6.51600331 Z M152.285928,39.0790227 L164.29356,39.0790227 C165.909889,39.0790227 167.467729,38.9252557 168.968504,38.6177216 C170.46928,38.3116113 171.814557,37.7933594 173.010042,37.0629659 C174.202673,36.3339962 175.16277,35.3345104 175.896039,34.0659323 C176.626454,32.7987779 176.993089,31.2055805 176.993089,29.2849162 C176.993089,27.2119086 176.5109,25.5404039 175.549377,24.2732495 C174.586427,23.0060952 173.355277,22.0265421 171.854501,21.3345904 C170.353726,20.6426387 168.680332,20.2026941 166.832895,20.0104853 C164.985457,19.8182765 163.213629,19.7214602 161.52169,19.7214602 L152.285928,19.7214602 L152.285928,39.0790227 L152.285928,39.0790227 Z" id="Fill-3"></path>
                    <path d="M303.219446,6.51600331 C303.219446,5.40973485 304.118199,4.51276042 305.226662,4.51276042 L334.852715,4.51276042 C339.009806,4.51276042 342.952909,4.91568703 346.686302,5.72154025 C350.419695,6.52881723 353.689446,7.87285511 356.499834,9.75507765 C359.308795,11.638724 361.539986,14.1730327 363.19626,17.3594276 C364.851108,20.54867 365.678532,24.5224091 365.678532,29.2849162 C365.678532,35.0454853 364.177756,39.9432505 361.176205,43.9753641 C358.174654,48.0089015 353.786454,50.563143 348.01446,51.6380885 L366.963892,83.0521264 C367.769917,84.3876217 366.80554,86.0890256 365.243421,86.0890256 L348.422465,86.0890256 C347.674931,86.0890256 346.98874,85.6747088 346.643504,85.01408 L330.11928,53.4818693 L321.23018,53.4818693 L321.23018,80.9392533 C321.23018,83.7839437 318.9191,86.0890256 316.068767,86.0890256 L305.226662,86.0890256 C304.118199,86.0890256 303.219446,85.1920511 303.219446,84.0857827 L303.219446,6.51600331 L303.219446,6.51600331 Z M321.23018,38.2717457 L331.851163,38.2717457 C333.467493,38.2717457 335.179404,38.214795 336.988324,38.0994697 C338.795817,37.9841444 340.432119,37.6381686 341.895803,37.0629659 C343.356634,36.4863395 344.569238,35.58367 345.532188,34.3549574 C346.493712,33.1276686 346.9759,31.3992131 346.9759,29.1695909 C346.9759,27.0951596 346.552202,25.4450114 345.706233,24.214875 C344.85741,22.9875862 343.780332,22.0464749 342.472147,21.392965 C341.163961,20.7408788 339.661759,20.2980866 337.96982,20.0674361 C336.276454,19.8367855 334.623033,19.7214602 333.006704,19.7214602 L321.23018,19.7214602 L321.23018,38.2717457 L321.23018,38.2717457 Z" id="Fill-4"></path>
                    <path d="M402.448961,20.4134119 L381.135665,20.4134119 C380.025776,20.4134119 379.127022,19.5164375 379.127022,18.4087453 L379.127022,6.51600331 C379.127022,5.40973485 380.025776,4.51276042 381.135665,4.51276042 L441.771565,4.51276042 C442.881454,4.51276042 443.780208,5.40973485 443.780208,6.51600331 L443.780208,15.2622159 C443.780208,18.1069062 441.469127,20.4134119 438.618795,20.4134119 L420.458269,20.4134119 L420.458269,80.9392533 C420.458269,83.7839437 418.148615,86.0890256 415.298283,86.0890256 L404.456177,86.0890256 C403.347715,86.0890256 402.448961,85.1920511 402.448961,84.0857827 L402.448961,20.4134119" id="Fill-5"></path>
                    <path d="M503.41892,22.859447 C502.678518,23.666724 501.423116,23.7350649 500.607105,23.0032476 C499.345997,21.8727751 497.81669,20.9900384 496.020609,20.3550374 C493.518366,19.4723007 491.151648,19.0309323 488.920457,19.0309323 C487.609418,19.0309323 486.264141,19.1846993 484.87892,19.4908097 C483.493698,19.7983438 482.184086,20.2795777 480.954363,20.9316638 C479.721787,21.5851738 478.720319,22.4494015 477.951385,23.5229233 C477.181025,24.6007164 476.797271,25.9063125 476.797271,27.4411354 C476.797271,29.8999844 477.720277,31.7822069 479.569141,33.087803 C481.415152,34.3933991 483.741925,35.5067865 486.55374,36.4293887 C489.361274,37.3505672 492.382798,38.2717457 495.615457,39.194348 C498.848116,40.1155265 501.868213,41.4225464 504.678601,43.1111364 C507.487562,44.8011501 509.815762,47.069214 511.663199,49.909633 C513.510637,52.7528996 514.435069,56.5543627 514.435069,61.3168698 C514.435069,65.8501501 513.586247,69.8053802 511.894307,73.1839839 C510.200942,76.5654351 507.91126,79.3688362 505.025263,81.5956108 C502.139266,83.8238092 498.791053,85.4753812 494.980623,86.5503267 C491.170194,87.6252723 487.148629,88.1634569 482.915928,88.1634569 C477.60615,88.1634569 472.678698,87.3561799 468.13928,85.7444735 C464.190471,84.3420611 460.47705,82.1864749 456.996163,79.2748674 C456.127368,78.5487453 456.051759,77.2374541 456.814986,76.4002779 L466.714114,65.5411922 C467.507299,64.6698456 468.865416,64.6812358 469.677147,65.5369209 C471.253532,67.1970355 473.108102,68.5368021 475.239432,69.5547969 C478.046967,70.9002585 480.954363,71.5708537 483.955914,71.5708537 C485.416745,71.5708537 486.898975,71.3985777 488.399751,71.0526018 C489.901953,70.7066259 491.24723,70.1883741 492.441288,69.4978461 C493.63392,68.8058944 494.595443,67.9245814 495.327285,66.8467884 C496.057701,65.7718428 496.424335,64.5046884 496.424335,63.0453253 C496.424335,60.5879001 495.481357,58.6487268 493.595402,57.2263816 C491.708019,55.8054602 489.342729,54.5966804 486.495249,53.5971946 C483.646343,52.5991326 480.567756,51.5996468 477.259488,50.6015848 C473.948366,49.6035227 470.869778,48.2580611 468.023726,46.5680473 C465.17482,44.8794574 462.808102,42.651259 460.923573,39.8848759 C459.036191,37.1199167 458.09464,33.4722206 458.09464,28.9389403 C458.09464,24.5608509 458.960582,20.720946 460.692465,17.4163783 C462.424349,14.1146581 464.732576,11.3496989 467.618573,9.1200767 C470.505997,6.89330208 473.834238,5.22322112 477.60615,4.10983381 C481.376634,2.9964465 485.262673,2.43832907 489.265693,2.43832907 C493.883573,2.43832907 498.347382,3.09183902 502.658546,4.39743513 C506.283518,5.49658475 509.608906,7.22076894 512.636136,9.56856392 C513.567701,10.2904148 513.693241,11.6472666 512.898629,12.5143419 L503.41892,22.859447" id="Fill-6"></path>
                    <path d="M273.902964,64.3708542 C273.248158,66.2189063 274.810277,69.603205 274.810277,69.603205 C274.810277,69.603205 274.272452,72.0748679 258.762535,75.4121823 C258.762535,75.4121823 254.581191,72.6999025 253.38,62.4743939 C252.381385,53.9915786 251.907756,53.9218139 251.807895,41.8226255 C251.816454,41.7058764 251.820734,41.579161 251.819307,41.4439029 C251.722299,35.4427169 251.519723,34.2809214 252.571122,33.3369626 C252.588241,33.3213011 252.603934,33.3042159 252.618199,33.2857069 C253.641066,32.373071 254.285886,31.0475421 254.285886,29.5710938 C254.285886,26.8217959 252.051842,24.5921738 249.295665,24.5921738 C246.540914,24.5921738 244.30687,26.8217959 244.30687,29.5710938 C244.30687,31.0760175 244.975942,32.4229029 246.03162,33.3355388 L246.033047,33.3369626 C247.024529,34.2268182 246.901842,35.3117301 246.803407,40.4572311 L246.793421,40.4572311 C246.713532,50.8977287 246.251316,53.6427552 245.212756,62.4743939 C244.010139,72.6999025 239.828795,75.4121823 239.828795,75.4121823 C224.320305,72.0748679 223.781053,69.603205 223.781053,69.603205 C223.782479,69.603205 225.343172,66.2189063 224.688366,64.3708542 C224.116302,62.7534527 212.422521,54.0770047 212.422521,54.0770047 C212.422521,54.0770047 212.908989,62.6737216 218.956316,72.6571894 C225.504377,83.4650194 249.294238,92.3137434 249.294238,92.3137434 L249.297091,92.3137434 C249.297091,92.3137434 273.086953,83.4650194 279.635014,72.6571894 C285.683767,62.6737216 286.168809,54.0770047 286.168809,54.0770047 C286.168809,54.0770047 274.475028,62.7534527 273.902964,64.3708542 L273.902964,64.3708542 Z M249.295665,31.6483726 C248.145831,31.6483726 247.214266,30.7186515 247.214266,29.5710938 C247.214266,28.423536 248.145831,27.4938149 249.295665,27.4938149 C250.445499,27.4938149 251.377064,28.423536 251.377064,29.5710938 C251.377064,30.7186515 250.445499,31.6483726 249.295665,31.6483726 L249.295665,31.6483726 Z" id="Fill-7"></path>
                    <path d="M287.636773,27.4140838 C280.589404,18.1795185 258.60133,0.511969697 249.482548,0.0634824811 L249.479695,0.0520923295 C249.422632,0.0520923295 249.362715,0.0563636364 249.305651,0.0577874053 L249.292812,0.0577874053 C249.234321,0.0563636364 249.174404,0.0520923295 249.118767,0.0520923295 L249.115914,0.0634824811 C239.997133,0.511969697 218.009058,18.1795185 210.96169,27.4140838 C207.630596,31.7793594 212.422521,52.6261842 212.422521,52.6261842 C212.422521,52.6261842 211.184238,36.4422027 214.108753,31.017643 C217.187341,25.3083295 238.900083,10.4142827 249.083102,9.57710653 C249.157285,9.574259 249.225762,9.56144508 249.292812,9.54435985 L249.298518,9.54435985 L249.305651,9.54435985 C249.372701,9.56144508 249.441177,9.574259 249.51536,9.57710653 C259.69838,10.4142827 281.411122,25.3083295 284.489709,31.017643 C287.414224,36.4422027 286.175942,52.6261842 286.175942,52.6261842 C286.175942,52.6261842 290.96644,31.7793594 287.636773,27.4140838" id="Fill-8"></path>
                    <path d="M258.052091,27.4212027 C257.835249,26.2124228 257.340222,24.9694725 256.545609,23.8646278 C255.752424,22.7626307 254.672493,21.7944678 253.387133,21.1366866 C252.111759,20.4660914 250.636662,20.1229631 249.172978,20.1300819 C248.439709,20.1400483 247.707867,20.2354408 246.99885,20.4134119 C246.288407,20.5885355 245.610776,20.8675942 244.974515,21.2050275 C244.338255,21.5410369 243.754778,21.9610488 243.232645,22.4308925 C242.709086,22.9007363 242.245443,23.4204119 241.863116,23.9828007 C241.08705,25.0990355 240.606288,26.3476809 240.410845,27.560732 C240.390873,27.7130753 240.3709,27.8639948 240.349501,28.0149143 C240.338089,28.16441 240.325249,28.3153295 240.31241,28.4634015 C240.30813,28.6157448 240.302424,28.7680881 240.298144,28.9190076 C240.300997,29.0556894 240.30385,29.1895237 240.30813,29.323358 L240.30813,29.3646473 L240.310983,29.3902751 L240.315263,29.4443783 L240.323823,29.551161 C240.329529,29.6209257 240.335235,29.6921141 240.340942,29.7618788 C240.349501,29.9014081 240.369474,30.0395137 240.390873,30.1761955 C240.423684,30.4481354 240.482175,30.7129564 240.539238,30.9692348 C240.794598,31.9929247 241.202604,32.8742377 241.667673,33.5733082 C242.129889,34.2766501 242.637756,34.8034446 243.078573,35.1964048 C243.516537,35.5950601 243.915983,35.8385246 244.17705,36.0093769 C244.448102,36.1617202 244.593615,36.242875 244.593615,36.242875 C244.593615,36.242875 244.469501,36.131821 244.238393,35.9239508 C244.127119,35.8143205 243.993019,35.68191 243.838947,35.5224479 C243.692008,35.3544432 243.517964,35.1693532 243.34392,34.9443977 C242.991551,34.5016056 242.614931,33.9264029 242.288241,33.2273324 C242.244017,33.1419062 242.211205,33.0493613 242.17126,32.9582401 C242.134169,32.8656951 242.095651,32.7731501 242.055706,32.6791813 C242.022895,32.5837888 241.988657,32.4855488 241.954418,32.3873087 C241.937299,32.3374768 241.92018,32.2876449 241.903061,32.237813 C241.888795,32.1879811 241.874529,32.1367254 241.860263,32.0840459 C241.733296,31.676848 241.650554,31.2340559 241.587784,30.7756023 C241.567812,30.5449517 241.53928,30.3114536 241.536427,30.0708366 C241.53072,29.9512401 241.525014,29.8302197 241.532147,29.7077756 C241.535,29.5910265 241.537853,29.4728537 241.540706,29.3546809 C241.550693,29.2208466 241.562105,29.0870123 241.572091,28.9517543 C241.587784,28.8321577 241.60205,28.7125611 241.617742,28.590117 C241.639141,28.4662491 241.661967,28.3409574 241.683366,28.214242 C241.711898,28.0889503 241.740429,27.9622348 241.770388,27.8355194 C242.020042,26.827491 242.49795,25.8265814 243.182715,24.9452685 C243.868906,24.0639555 244.769086,23.3107817 245.806219,22.7882585 C246.841925,22.2657353 248.008878,21.9795578 249.187244,21.9752865 L249.241454,21.9738627 L249.279972,21.9752865 L249.404086,21.978134 L249.650886,21.9824053 C249.790693,21.9952192 249.923366,21.9994905 250.067452,22.0165758 C250.212964,22.0365085 250.359903,22.0478987 250.503989,22.0763741 L250.719404,22.113392 L250.933393,22.1618002 C251.50403,22.2927869 252.060402,22.4793007 252.579681,22.7355791 L252.775125,22.8323954 L252.964861,22.9377543 C253.093255,23.0046714 253.213089,23.0844025 253.335776,23.1584384 C253.459889,23.2324744 253.575443,23.3179006 253.695277,23.3962079 C253.809404,23.4844815 253.927812,23.5656364 254.037659,23.6567576 C254.482756,24.0141236 254.882202,24.418474 255.235997,24.8512997 C255.936454,25.7212225 256.424349,26.716437 256.692548,27.7187704 C256.829501,28.219937 256.907964,28.725375 256.943629,29.2179991 L256.952188,29.310544 L256.953615,29.3333243 L256.955042,29.3447145 C256.955042,29.3447145 256.955042,29.3717661 256.956468,29.3375956 L256.956468,29.3874276 C256.957895,29.4529209 256.959321,29.5198381 256.960748,29.5853314 C256.962175,29.7134706 256.972161,29.8544238 256.963601,29.9626302 C256.959321,30.0779555 256.955042,30.1932808 256.950762,30.3057585 C256.940776,30.4239313 256.930789,30.5392566 256.919377,30.6545819 C256.912244,30.771331 256.895125,30.8838087 256.876579,30.9962865 C256.858033,31.1087642 256.845194,31.221242 256.822368,31.3294484 C256.775291,31.547285 256.732493,31.7622741 256.67115,31.9672969 C256.564155,32.3816136 256.41151,32.7603362 256.263144,33.1162784 C255.94644,33.8196203 255.579806,34.4019418 255.234571,34.850429 C255.06338,35.0768082 254.893615,35.2661695 254.748102,35.435598 C254.59831,35.5993314 254.462784,35.7331657 254.354363,35.8442197 C254.127535,36.0563613 254.006274,36.168839 254.006274,36.168839 C254.006274,36.168839 254.15036,36.0848366 254.419986,35.9282221 C254.678199,35.7530985 255.073366,35.5053627 255.505623,35.0995885 C255.940734,34.6995095 256.438615,34.1641723 256.892271,33.4551354 C257.337368,32.7446747 257.746801,31.8633617 257.976482,30.832553 C258.003587,30.7029901 258.033546,30.5734271 258.057798,30.4395928 C258.07777,30.3014872 258.097742,30.1619579 258.117715,30.0224285 C258.14054,29.8743565 258.14482,29.7561837 258.157659,29.6223494 C258.163366,29.5568561 258.169072,29.4913627 258.174778,29.4258693 L258.179058,29.3760374 L258.180485,29.3034252 L258.183338,29.1966425 C258.200457,28.6242874 258.159086,28.0277282 258.052091,27.4212027" id="Fill-9"></path>
                </g>
            </g>
        </g>
    </g>
</svg>