<?xml version="1.0" encoding="utf-8"?>
<!-- Generator: Adobe Illustrator 19.0.0, SVG Export Plug-In . SVG Version: 6.00 Build 0)  -->
<svg version="1.1" id="图层_1" xmlns="http://www.w3.org/2000/svg" xmlns:xlink="http://www.w3.org/1999/xlink" x="0px" y="0px"
	 viewBox="0 0 335 382" style="enable-background:new 0 0 335 382;" xml:space="preserve">
<style type="text/css">
	.st0{fill-rule:evenodd;clip-rule:evenodd;fill:#E0BA99;}
	.st1{fill-rule:evenodd;clip-rule:evenodd;fill:#4A4A4A;}
	.st2{fill:#E56B53;}
	.st3{fill-rule:evenodd;clip-rule:evenodd;fill:#CAEBFC;}
	.st4{fill-rule:evenodd;clip-rule:evenodd;fill:#666666;}
	.st5{fill-rule:evenodd;clip-rule:evenodd;fill:#7F5716;}
	.st6{fill-rule:evenodd;clip-rule:evenodd;fill:#FFFABB;}
	.st7{fill-rule:evenodd;clip-rule:evenodd;fill:#424242;}
	.st8{fill-rule:evenodd;clip-rule:evenodd;fill:#FCD7AC;}
	.st9{fill-rule:evenodd;clip-rule:evenodd;fill:#C9412F;}
	.st10{fill-rule:evenodd;clip-rule:evenodd;fill:#E56B53;}
	.st11{fill-rule:evenodd;clip-rule:evenodd;fill:#614630;}
	.st12{fill:none;}
	.st13{fill-rule:evenodd;clip-rule:evenodd;fill:none;}
</style>
<g id="XMLID_6_">
	<path id="XMLID_23_" class="st0" d="M111.9,140.5c0,0-4.3,18.4-13.4,22.6l46.1,35.6l45.1-35.6c0,0-8.1-6.4-13.6-22.2
		C170.4,125.2,111.9,140.5,111.9,140.5z"/>
	<path id="XMLID_22_" class="st1" d="M99.1,162.7l-67.2,25.3c0,0-14.1,3.3-17.6,25.5C10.8,235.6,0,317.6,0,317.6s3.7,13.3,7.7,18
		c3.9,4.8,9.3,9.1,13.4,9.3c4.1,0.2,26.9-2.1,29-2.9l0.4,17.6l218.6-0.2l9.1-108.6c0,0-1-35.6-5.6-47.2
		c-4.5-11.6-19.4-17.2-31.6-21.5c-12.2-4.4-51.3-19.1-51.3-19.1l-45.1,34.6L99.1,162.7z"/>
	<path id="XMLID_27_" class="st2" d="M224.2,227.3l0.4-51.4l-27.5-10.4l0.2,61.8H91.6l0.4-62l-27.5,10.6l-0.4,51.4h-7.4V360h173
		V227.3H224.2z M87.3,248.6h-18v-8.4h18V248.6z M219.3,248.6h-18v-8.4h18V248.6z"/>
	<path id="XMLID_3_" class="st3" d="M171.3,169.5l14.2,1.9c0.9,0.1,1.5,0.8,1.6,1.6c0.5,3.9,1.6,14.3,0.2,17
		c-1.7,3.3-8.5,14.5-8.5,14.5l-5.6,46.2l-8.5,1.9l-2.1-2.7l6.4-47.6c0,0-4.1-12.6-4.1-14.7c0-1.7,2.9-12.4,4.1-16.6
		C169.4,170,170.3,169.4,171.3,169.5"/>
	<polygon id="XMLID_19_" class="st4" points="149.3,247.6 186.1,252.2 185.9,261.5 178.3,264.4 165.8,263.1 154.3,261.3 
		147.6,257.1 	"/>
	<path id="XMLID_18_" class="st5" d="M141.2,324.5c0,0-0.4,8.5,2.7,11.4c3.1,2.9,5.8,4.8,13.2,5.2c7.4,0.4,12.4,1.2,16.8-7.9
		c4.3-9.1,4.3-68.8,4.3-68.8l-24-3.1L141.2,324.5z"/>
	<path id="XMLID_17_" class="st1" d="M183.9,336.2l47.3-82.1c11.6-20.1,40.5-20.1,52.1,0l47.3,82.1c11.6,20.1-2.9,45.2-26.1,45.2
		h-94.6C186.8,381.4,172.3,356.3,183.9,336.2"/>
	<path id="XMLID_16_" class="st6" d="M197.5,345.8l48.5-84.1c5-8.7,17.6-8.7,22.6,0l48.5,84.1c5,8.7-1.3,19.6-11.3,19.6h-97
		C198.7,365.4,192.4,354.5,197.5,345.8"/>
	<path id="XMLID_15_" class="st7" d="M257.7,328.1L257.7,328.1c-2.8,0-5.4-1.6-5.7-3.7l-4.7-29.7c-1.4-8.5,3.2-17.3,10.4-17.3
		c7.2,0,11.8,8.8,10.4,17.3l-4.7,29.7C263,326.6,260.5,328.1,257.7,328.1"/>
	<path id="XMLID_14_" class="st7" d="M266.7,343.4c0,5-4,9-9,9c-5,0-9-4-9-9c0-5,4-9,9-9C262.6,334.4,266.7,338.4,266.7,343.4"/>
	<path id="XMLID_13_" class="st8" d="M90,77.7c0,0-5.6,2.5-6.4,4.8c-0.8,2.3,0.2,17.6,2.7,24c2.5,6.4,2.3,7.9,7.9,10.2
		c0,0,6.8,20.1,17,30.2c10.1,10.2,13.2,11.8,16.3,13.7c3.1,1.9,10.3,3.3,17,3.5c6.6,0.2,10.5-0.8,10.5-0.8s8.7-1.5,22.3-16
		c13.6-14.5,16.8-31.9,16.8-31.9s2.1,0.4,5.2-2.9c3.1-3.3,7.2-27.8,5.8-30.2s-5.6-3.3-7.2-2.9C196,79.8,90,77.7,90,77.7"/>
	<path id="XMLID_12_" class="st9" d="M86.9,35.3c0,0,2.5-33.6,57.7-35.2c55.2-1.7,57.7,39.4,57.7,39.4l1.4,37.5L85,76.5
		C85,76.5,85.6,43.6,86.9,35.3"/>
	<path id="XMLID_11_" class="st10" d="M170.2,37.3c0,7.1-11.4,12.8-25.5,12.8c-14.1,0-25.5-5.8-25.5-12.8s11.4-12.8,25.5-12.8
		C158.8,24.5,170.2,30.2,170.2,37.3"/>
	<path id="XMLID_10_" class="st11" d="M96.2,88.3l1.2,12.6c0,0,4.3,3.7,4.3,2.9c0-0.8-0.2-16.4-0.2-16.4L96.2,88.3z"/>
	<polygon id="XMLID_5_" class="st11" points="187.6,87.3 188.4,100.9 192.7,98.7 195.8,81.7 	"/>
	<path id="XMLID_4_" class="st10" d="M90.8,85.4c0,0,4.5,8.9,15.1,9.1c10.5,0.2,4.3-4.4,38.7-3.7c34.3,0.6,34.3,6.6,45.5,1.2
		c11.2-5.4,13.6-15.1,13.6-15.1s-22.5-7.9-60-7.5c-37.4,0.4-58.3,6-58.7,7C84.6,77.5,90.8,85.4,90.8,85.4"/>
	<path id="XMLID_1_" class="st8" d="M124.1,280.5c0,0,6.8-1,13-7.3c6.2-6.2,9.7-9.5,17.2-12v9.5c0,0-0.2,2.1,3.5,1
		c3.7-1,16.1-6,24-4.6c7.9,1.5,6.6,7.9,5.4,12.8c0,0,5.2,8.1-1.4,14.3c0,0,4.1,6.8-1.7,11.4c0,0,3.7,8.3-7.2,13.5
		c-11,5.2-30,6.2-35.6,5.2c-5.6-1-15.1-5.4-21.1-6c-6-0.6-4.8-23-4.8-23S116.8,286.3,124.1,280.5"/>
	<path id="XMLID_2_" class="st1" d="M50,268.7l66.8,7.3h2.7c0,0,4.8,3.1,4.5,5.4c-0.2,2.3-10.8,16.6-3.9,37.1l-2.9,4.1l-59.6,18.2
		c0,0-30.2,6-36.6,4.1c-6.4-1.9-14.5-8.1-17.2-15.7S0,317.6,0,317.6l6.2-45.8L50,268.7z"/>
	<rect id="XMLID_20_" x="0" y="0" class="st12" width="335" height="382"/>
	<rect id="XMLID_9_" x="0" y="0" class="st13" width="334.7" height="381.4"/>
</g>
</svg>
